<svg xmlns="http://www.w3.org/2000/svg" width="268.903" height="89.061"><defs><clipPath id="a"><path data-name="Path 5" d="M0-74.246h268.9v-89.061H0Z" transform="translate(0 163.307)" fill="none"/></clipPath></defs><g data-name="Group 105"><g data-name="Group 1"><path data-name="Path 1" d="M104.128 25.994h-6.5V21.65h17.705v4.344h-6.5v17.072h-4.7Z" fill="#fff"/></g><g data-name="Group 2"><path data-name="Path 2" d="M119.702 21.649h16.123v4.191h-11.451v4.345h10.076v4.19h-10.076v4.5h11.6v4.192h-16.272Z" fill="#fff"/></g><g data-name="Group 5" clip-path="url(#a)"><g data-name="Group 3"><path data-name="Path 3" d="M140.925 21.65h9.772a8.512 8.512 0 0 1 6.228 2.171 6.735 6.735 0 0 1 1.832 4.9v.062a6.648 6.648 0 0 1-4.58 6.637l5.222 7.65h-5.5l-4.574-6.858h-3.7v6.854h-4.7Zm9.465 10.4c2.29 0 3.6-1.223 3.6-3.03v-.06c0-2.019-1.4-3.059-3.7-3.059h-4.665v6.149Z" fill="#fff"/></g><g data-name="Group 4"><path data-name="Path 4" d="M163.766 21.65h9.772a8.512 8.512 0 0 1 6.228 2.171 6.735 6.735 0 0 1 1.832 4.9v.062a6.648 6.648 0 0 1-4.58 6.637l5.222 7.65h-5.5l-4.574-6.858h-3.7v6.854h-4.7Zm9.465 10.4c2.291 0 3.6-1.223 3.6-3.03v-.06c0-2.019-1.4-3.059-3.7-3.059h-4.665v6.149Z" fill="#fff"/></g></g><g data-name="Group 6"><path data-name="Path 6" d="M186.607 21.649h16.123v4.191h-11.451v4.345h10.076v4.19h-10.076v4.5h11.6v4.192h-16.272Z" fill="#fff"/></g><g data-name="Group 9" clip-path="url(#a)"><g data-name="Group 7"><path data-name="Path 7" d="m97.685 66.269 2.779-3.335a9.8 9.8 0 0 0 6.382 2.6c1.923 0 3.084-.765 3.084-2.019v-.062c0-1.192-.734-1.805-4.305-2.722-4.306-1.101-7.085-2.293-7.085-6.546v-.062c0-3.885 3.115-6.455 7.481-6.455a12.355 12.355 0 0 1 7.94 2.722l-2.444 3.549a10.016 10.016 0 0 0-5.557-2.111c-1.8 0-2.749.826-2.749 1.866v.063c0 1.406.917 1.866 4.612 2.814 4.335 1.132 6.779 2.692 6.779 6.425v.061c0 4.252-3.237 6.638-7.848 6.638a13.591 13.591 0 0 1-9.069-3.426" fill="#fff"/></g><g data-name="Group 8"><path data-name="Path 8" d="M117.748 58.743v-.061a11.063 11.063 0 0 1 11.389-11.075 10.961 10.961 0 0 1 11.328 11.013v.062a11.063 11.063 0 0 1-11.389 11.075 10.961 10.961 0 0 1-11.328-11.014m17.8 0v-.061a6.5 6.5 0 0 0-6.473-6.73 6.4 6.4 0 0 0-6.411 6.668v.062a6.5 6.5 0 0 0 6.473 6.73 6.4 6.4 0 0 0 6.411-6.669" fill="#fff"/></g></g><g data-name="Group 10"><path data-name="Path 10" d="M144.65 47.975h4.7v17.131h10.658v4.284H144.65Z" fill="#fff"/></g><path data-name="Path 11" d="M163.766 47.974h4.7v21.415h-4.7Z" fill="#fff"/><g data-name="Group 12" clip-path="url(#a)"><g data-name="Group 11"><path data-name="Path 12" d="M173.813 47.974h8.336c6.718 0 11.359 4.62 11.359 10.646v.062c0 6.027-4.64 10.708-11.359 10.708h-8.336Zm8.336 17.162a6.1 6.1 0 0 0 6.443-6.394v-.061a6.145 6.145 0 0 0-6.443-6.455h-3.636v12.91Z" fill="#fff"/></g></g><g data-name="Group 13"><path data-name="Path 14" d="M203.494 47.822h4.337l9.16 21.568h-4.916l-1.955-4.8h-9.038l-1.951 4.8h-4.8Zm4.946 12.6-2.839-6.941-2.839 6.941Z" fill="#fff"/></g><path data-name="Path 15" d="M220.504 47.974h4.7v21.415h-4.7Z" fill="#fff"/><g data-name="Group 15" clip-path="url(#a)"><g data-name="Group 14"><path data-name="Path 16" d="M230.55 47.975h9.772a8.514 8.514 0 0 1 6.228 2.171 6.735 6.735 0 0 1 1.832 4.9v.062a6.648 6.648 0 0 1-4.58 6.637l5.222 7.65h-5.5l-4.574-6.858h-3.7v6.854h-4.7Zm9.465 10.4c2.291 0 3.6-1.223 3.6-3.03v-.06c0-2.019-1.4-3.059-3.7-3.059h-4.665v6.149Z" fill="#fff"/></g></g><g data-name="Group 16"><path data-name="Path 18" d="M252.627 47.975V69.39h16.276v-4.191h-11.604v-4.5h10.076V56.51h-10.076v-4.344h11.451v-4.191Z" fill="#fff"/></g><g data-name="Group 21" clip-path="url(#a)"><g data-name="Group 17"><path data-name="Path 19" d="M65.018 29.839h-1.895v6.727h1.895a3.176 3.176 0 0 0 3.356-3.332v-.032a3.2 3.2 0 0 0-3.356-3.363" fill="#fff"/></g><g data-name="Group 18"><path data-name="Path 20" d="M84.818 41.863c.03-.454.065-.965.084-1.537-.007-.572-.014-1.2-.02-1.9-.025-.694-.1-1.447-.157-2.275-.038-.411-.1-.836-.16-1.281s-.105-.91-.205-1.382l.127.181c-.269-1.115-.507-2.132-.815-3.051a26.7 26.7 0 0 0-.919-2.548c-.152-.395-.331-.768-.51-1.132s-.357-.72-.541-1.069a26.2 26.2 0 0 0-1.24-2 4.728 4.728 0 0 0-.918-2.015c-.576-.839-1.192-1.729-1.461-2.2l.09.062c-.938-1.053-1.748-2.236-2.612-3.38a16.339 16.339 0 0 0-2.853-3.073 1.161 1.161 0 0 1 .674.435c-.345-.353-.761-.7-1.151-1.06s-.78-.716-1.14-1.016c-.708-.616-1.216-1.115-1.2-1.253a3.941 3.941 0 0 0-.184-.142h.207a52.005 52.005 0 0 1-1.315-.855 46.292 46.292 0 0 0-3.521-2.389 43.287 43.287 0 0 0-5.36-3.214C55.608 1.85 43.182-.04 41.246 0a31.149 31.149 0 0 0-12.379 2.663 42.36 42.36 0 0 0-3 1.316l-.157-.148c-.326.177-.65.337-.975.485s-.633.313-.946.454-.625.271-.931.4l-.884.4a12.59 12.59 0 0 0-2.77 1.541c-.735.4-1.456.816-2.153 1.263-.085.035-.17.07-.25.108a4.535 4.535 0 0 0-.828.438c-.166.11-.355.249-.575.425s-.454.416-.736.7c-.376.187-.758.368-1.133.563-1.053.868-.541.867-1.734 1.789-.044-.187-1.469 1.222-.939.5l-.492.417-.464.455q-.456.464-.9.953c-.3.328-.571.685-.858 1.036s-.582.707-.85 1.093c-.858 1.141-1.707 2.374-2.667 3.694q-.419.762-.8 1.541c3.3.326 7.034.831 9.175 1.3 4.715 1.02 5.291 4.4-2.2 4.988-5.509.431-2.95 4.1-1.239 6.454 2.179 3 7.5 6.668 11.644 9.2 4.638 2.826 9.969 3.279 8.21 6.979-1.3 2.744-9.14-.823-13.858-3.606a46.634 46.634 0 0 1-7.592-5.567c-.479-.5-.932.152-.4.741 1.6 1.767 5.888 4.518 9.155 6.406 4.339 2.51 10.57 4 9.277 6.749-2.06 4.381-11.233-.879-14.761-3.092a88.4 88.4 0 0 1-7.2-5.26c-.446-.35-.775.34-.316.681a74.591 74.591 0 0 0 7.053 5.225c6.47 4.1 12.21 5.047 10.267 8.178-1.288 2.074-6.823.125-11.513-2.586a62.693 62.693 0 0 1-8.918-6.271c-.383-.263-.719.221-.477.571a17.416 17.416 0 0 0 4.085 3.842c3.544 2.677 6.5 3.833 4.488 5.665-.839.762-4.507-.412-8.694-3.122.38.671.816 1.41.948 1.75a21.168 21.168 0 0 0 1.322 3.506 13.471 13.471 0 0 0 .615 1.364c.257.466.533.938.791 1.382a11.387 11.387 0 0 1 1.1 2s.119.213.335.521.5.734.817 1.173a15.936 15.936 0 0 0 1 1.24c.152.168.291.32.419.449.135.278.267.557.408.833.089.109.162.191.236.272.047.117.038.176-.111.089a37.858 37.858 0 0 1 3.7 3.618l-.173-.142a25.819 25.819 0 0 0 4.6 3.7c1.518 1.017 3.057 1.869 4.717 2.943-.053-.28 1.738.778 1.41.285l1.362.582c.441.19.859.4 1.272.585l1.194.532c.381.178.747.343 1.1.475a12.076 12.076 0 0 0 1.923.637 3.213 3.213 0 0 0 1.475.021 13.53 13.53 0 0 1 1.813.533 6.7 6.7 0 0 0 1.171.41l-.441-.031 2.162.338 1.636.187c.5.069.968.091 1.473.133s1.044.1 1.684.115a24.19 24.19 0 0 1 3.744-.4c-.728.172.2.158 1.048.074-.54.068-.707.14.418.166a3.592 3.592 0 0 1 .618-.157c.01.013.056.018.035.039a4.235 4.235 0 0 0 1.025-.186c.03-.027-.2-.017-.525.014.03-.028-.029-.053-.236-.084a16.611 16.611 0 0 0 2.617-.225l.207-.034-.541.139c.322-.062.656-.142.985-.212.534-.082.928-.118 1.011-.028A33.638 33.638 0 0 0 55.3 86.69a29.662 29.662 0 0 0 3.276-1.087 45.52 45.52 0 0 0 7.655-4.84c-.034 0-.07.009-.106.01-6.385.909-7.613.409-7.727-.574-.232-1.995 1.308-1.708 4.843-2.273a7.984 7.984 0 0 0 3.988-1.714c.255-.227.213-.642-.157-.58a39.52 39.52 0 0 1-8.4 1.7c-4.349.393-7.544.069-7.293-1.886.29-2.259 2.073-1.426 8.2-2.228a25.522 25.522 0 0 0 6.755-1.57c.377-.264.444-1.113 0-1.006-1.227.287-4.364 1.062-7.053 1.4-3.329.421-12.515.976-11.354-2.756.587-1.89 6.429-1.066 10.609-1.4a22.544 22.544 0 0 0 7.023-1.459c.59-.251.291-1.386-.228-1.184a37.581 37.581 0 0 1-7.442 1.5c-4.393.434-9.2.458-9.118-1.991.1-2.941 3.681-2.138 8.031-2.632 3.892-.442 7.164-1 9.729-2.542 4.772-2.865 2.727-4.987-3.9-5.083-5.407-.077-5.132-4.428.079-4.4 12.284.07 13.562-3.223 19.809-2.435a17.341 17.341 0 0 1 2.388.57c0-.134 0-.268-.008-.419.12-.406.218-2.871.218-2.871.058-.367-.327-2.584-.3-3.086m-52.518-2.891a5.627 5.627 0 0 1-5.713-5.738v-.032a5.666 5.666 0 0 1 5.808-5.77 5.741 5.741 0 0 1 4.392 1.721l-1.559 1.8a4.115 4.115 0 0 0-2.848-1.259 3.3 3.3 0 0 0-3.229 3.475v.032a3.311 3.311 0 0 0 3.229 3.507 4.018 4.018 0 0 0 2.927-1.307l1.559 1.577a5.684 5.684 0 0 1-4.566 1.992m11.421 0a5.626 5.626 0 0 1-5.712-5.738v-.032a5.666 5.666 0 0 1 5.808-5.77 5.741 5.741 0 0 1 4.392 1.721l-1.56 1.8a4.113 4.113 0 0 0-2.847-1.259 3.3 3.3 0 0 0-3.23 3.475v.032a3.311 3.311 0 0 0 3.23 3.507 4.019 4.019 0 0 0 2.927-1.307l1.559 1.577a5.684 5.684 0 0 1-4.566 1.992m15-9.117h-6.029v2.375h5.315v2.246h-5.315v4.32h-2.451v-11.16h8.477Zm12.218 3.348a5.58 5.58 0 0 1-5.921 5.592h-4.344V27.623h4.344c3.5 0 5.918 2.408 5.918 5.547Z" fill="#fff"/></g><g data-name="Group 19"><path data-name="Path 21" d="M101.397 77.954q-1.824 0-1.824 1.377a1.185 1.185 0 0 0 .419 1.054 5.6 5.6 0 0 0 1.7.573 4.337 4.337 0 0 1 1.819.743 1.883 1.883 0 0 1 .538 1.505q0 2.6-2.689 2.6a15.048 15.048 0 0 1-2.225-.207l-.439-.061.1-.78a20.79 20.79 0 0 0 2.512.215q1.8 0 1.8-1.693a1.15 1.15 0 0 0-.4-.982 3.846 3.846 0 0 0-1.47-.506 4.955 4.955 0 0 1-2.018-.786 1.958 1.958 0 0 1-.6-1.614q0-2.267 2.712-2.267a15.035 15.035 0 0 1 2.129.183l.413.062-.082.791a23.064 23.064 0 0 0-2.4-.207" fill="#fff"/></g><g data-name="Group 20"><path data-name="Path 22" d="M106.176 82.615a3.89 3.89 0 0 0 .323 1.871 1.455 1.455 0 0 0 1.35.536 1.445 1.445 0 0 0 1.344-.531 3.915 3.915 0 0 0 .317-1.87 3.442 3.442 0 0 0-.353-1.847 1.491 1.491 0 0 0-1.308-.505 1.505 1.505 0 0 0-1.313.505 3.374 3.374 0 0 0-.36 1.841m-.936.019a3.874 3.874 0 0 1 .6-2.414 2.442 2.442 0 0 1 2.009-.743 2.424 2.424 0 0 1 2.008.743 3.907 3.907 0 0 1 .589 2.411 4.124 4.124 0 0 1-.56 2.425 2.4 2.4 0 0 1-2.043.758 2.4 2.4 0 0 1-2.043-.756 4.124 4.124 0 0 1-.56-2.427" fill="#fff"/></g></g><g data-name="Group 22"><path data-name="Path 24" d="M111.236 79.599h.912l1.521 5.3h.4l1.534-5.3h.912l-2.53 8.8h-.912l.79-2.706h-.9Z" fill="#fff"/></g><g data-name="Group 26" clip-path="url(#a)"><g data-name="Group 23"><path data-name="Path 25" d="M118.241 82.615a3.883 3.883 0 0 0 .323 1.871 1.455 1.455 0 0 0 1.35.536 1.445 1.445 0 0 0 1.344-.531 3.915 3.915 0 0 0 .317-1.87 3.442 3.442 0 0 0-.353-1.847 1.491 1.491 0 0 0-1.308-.505 1.505 1.505 0 0 0-1.313.505 3.374 3.374 0 0 0-.36 1.841m-.936.019a3.874 3.874 0 0 1 .6-2.414 2.442 2.442 0 0 1 2.009-.743 2.424 2.424 0 0 1 2.008.743 3.907 3.907 0 0 1 .589 2.411 4.124 4.124 0 0 1-.56 2.425 2.4 2.4 0 0 1-2.043.758 2.4 2.4 0 0 1-2.043-.756 4.124 4.124 0 0 1-.56-2.427" fill="#fff"/></g><g data-name="Group 24"><path data-name="Path 26" d="M124.907 85.691h-.912v-6.093h.9v.427a3.888 3.888 0 0 1 1.885-.553 1.8 1.8 0 0 1 1.636.657 4.651 4.651 0 0 1 .419 2.343v3.217h-.9v-3.19a4.133 4.133 0 0 0-.248-1.737 1.1 1.1 0 0 0-1.065-.47 3.207 3.207 0 0 0-.821.116 4.088 4.088 0 0 0-.663.226l-.231.109Z" fill="#fff"/></g><g data-name="Group 25"><path data-name="Path 27" d="M132.436 80.293q-1.326 0-1.326.927a.64.64 0 0 0 .3.6 5.141 5.141 0 0 0 1.391.368 3.7 3.7 0 0 1 1.532.531 1.525 1.525 0 0 1 .45 1.28 1.588 1.588 0 0 1-.603 1.375 2.963 2.963 0 0 1-1.757.439 10.966 10.966 0 0 1-1.776-.171l-.364-.061.049-.792a15.328 15.328 0 0 0 2.091.208 2.083 2.083 0 0 0 1.078-.223.812.812 0 0 0 .371-.754.769.769 0 0 0-.316-.72 4.672 4.672 0 0 0-1.386-.359 3.659 3.659 0 0 1-1.52-.5 1.422 1.422 0 0 1-.449-1.221 1.485 1.485 0 0 1 .626-1.317 2.714 2.714 0 0 1 1.56-.429 12.887 12.887 0 0 1 1.861.17l.34.062-.024.78a15.849 15.849 0 0 0-2.129-.2" fill="#fff"/></g></g><g data-name="Group 27"><path data-name="Path 29" d="M138.93 76.942v8.749l.8-.021v-8.749Z" fill="#fff"/></g><g data-name="Group 48" clip-path="url(#a)"><g data-name="Group 28"><path data-name="Path 30" d="M145.471 82.292a2.657 2.657 0 0 0-.358-1.584 1.389 1.389 0 0 0-1.168-.463 1.5 1.5 0 0 0-1.217.487 2.467 2.467 0 0 0-.419 1.56Zm.332 2.647.353-.04.024.719a17.458 17.458 0 0 1-2.372.2 2.138 2.138 0 0 1-1.861-.766 4.1 4.1 0 0 1-.547-2.371q0-3.2 2.542-3.2a2.324 2.324 0 0 1 1.837.689 3.208 3.208 0 0 1 .607 2.159l-.048.695h-4.014a2.5 2.5 0 0 0 .365 1.5 1.491 1.491 0 0 0 1.271.486q.9 0 1.842-.073" fill="#fff"/></g><g data-name="Group 29"><path data-name="Path 31" d="M149.72 80.293q-1.326 0-1.326.927a.64.64 0 0 0 .3.6 5.141 5.141 0 0 0 1.391.368 3.7 3.7 0 0 1 1.532.531 1.525 1.525 0 0 1 .45 1.28 1.588 1.588 0 0 1-.603 1.375 2.963 2.963 0 0 1-1.757.439 10.966 10.966 0 0 1-1.776-.171l-.365-.061.05-.792a15.312 15.312 0 0 0 2.091.208 2.082 2.082 0 0 0 1.078-.223.811.811 0 0 0 .371-.754.769.769 0 0 0-.316-.72 4.672 4.672 0 0 0-1.386-.359 3.659 3.659 0 0 1-1.52-.5 1.419 1.419 0 0 1-.449-1.221 1.482 1.482 0 0 1 .626-1.317 2.714 2.714 0 0 1 1.56-.429 12.874 12.874 0 0 1 1.86.17l.341.062-.024.78a15.849 15.849 0 0 0-2.129-.2" fill="#fff"/></g><g data-name="Group 30"><path data-name="Path 32" d="M157.307 80.391v5.3h-.912v-5.3h-.766v-.792h.766v-.549a3.028 3.028 0 0 1 .365-1.76 1.526 1.526 0 0 1 1.277-.47l1.228.086-.011.755q-.681-.025-1.126-.025a.693.693 0 0 0-.632.293 2.3 2.3 0 0 0-.189 1.134v.536h1.765v.792Z" fill="#fff"/></g><g data-name="Group 31"><path data-name="Path 33" d="M160.727 82.615a3.9 3.9 0 0 0 .322 1.871 1.456 1.456 0 0 0 1.349.536 1.448 1.448 0 0 0 1.345-.531 3.932 3.932 0 0 0 .316-1.87 3.442 3.442 0 0 0-.351-1.847 1.491 1.491 0 0 0-1.31-.505 1.505 1.505 0 0 0-1.313.505 3.376 3.376 0 0 0-.358 1.841m-.937.019a3.878 3.878 0 0 1 .6-2.414 2.44 2.44 0 0 1 2.008-.743 2.423 2.423 0 0 1 2.01.743 3.907 3.907 0 0 1 .587 2.411 4.124 4.124 0 0 1-.56 2.425 2.4 2.4 0 0 1-2.043.758 2.4 2.4 0 0 1-2.043-.756 4.125 4.125 0 0 1-.559-2.427" fill="#fff"/></g><g data-name="Group 32"><path data-name="Path 34" d="M166.479 85.692v-6.093h.9v.829a5.926 5.926 0 0 1 2.226-.963v.927a6.469 6.469 0 0 0-1.065.3 7.14 7.14 0 0 0-.846.365l-.3.158v4.472Z" fill="#fff"/></g><g data-name="Group 33"><path data-name="Path 35" d="M172.84 79.477a10.462 10.462 0 0 1 1.363.146l.292.037-.037.744a14.137 14.137 0 0 0-1.435-.111 1.666 1.666 0 0 0-1.4.494 3.209 3.209 0 0 0-.373 1.828 3.578 3.578 0 0 0 .344 1.862 1.623 1.623 0 0 0 1.44.525l1.436-.11.037.755a12.493 12.493 0 0 1-1.691.171 2.3 2.3 0 0 1-1.966-.735 4.269 4.269 0 0 1-.54-2.468 3.882 3.882 0 0 1 .584-2.438 2.408 2.408 0 0 1 1.946-.7" fill="#fff"/></g><g data-name="Group 34"><path data-name="Path 36" d="M179.6 82.292a2.657 2.657 0 0 0-.358-1.584 1.388 1.388 0 0 0-1.168-.463 1.5 1.5 0 0 0-1.216.487 2.464 2.464 0 0 0-.419 1.56Zm.331 2.647.353-.04.024.719a17.458 17.458 0 0 1-2.372.2 2.138 2.138 0 0 1-1.86-.766 4.1 4.1 0 0 1-.548-2.371q0-3.2 2.542-3.2a2.32 2.32 0 0 1 1.836.689 3.208 3.208 0 0 1 .609 2.159l-.048.695h-4.015a2.5 2.5 0 0 0 .365 1.5 1.491 1.491 0 0 0 1.272.486q.9 0 1.842-.073" fill="#fff"/></g><g data-name="Group 35"><path data-name="Path 37" d="M183.848 80.293q-1.326 0-1.326.927a.639.639 0 0 0 .3.6 5.129 5.129 0 0 0 1.391.368 3.7 3.7 0 0 1 1.532.531 1.525 1.525 0 0 1 .45 1.28 1.59 1.59 0 0 1-.602 1.375 2.969 2.969 0 0 1-1.758.439 10.966 10.966 0 0 1-1.776-.171l-.365-.061.049-.792a15.342 15.342 0 0 0 2.092.208 2.08 2.08 0 0 0 1.078-.223.811.811 0 0 0 .371-.754.769.769 0 0 0-.316-.72 4.667 4.667 0 0 0-1.386-.359 3.665 3.665 0 0 1-1.52-.5 1.422 1.422 0 0 1-.449-1.221 1.482 1.482 0 0 1 .626-1.317 2.714 2.714 0 0 1 1.56-.429 12.868 12.868 0 0 1 1.861.17l.34.062-.024.78a15.849 15.849 0 0 0-2.129-.2" fill="#fff"/></g><g data-name="Group 36"><path data-name="Path 38" d="M191.777 84.912a1.579 1.579 0 0 0 .566.085 3.033 3.033 0 0 0 .779-.116 4.5 4.5 0 0 0 .674-.225l.243-.11v-4.131a7.854 7.854 0 0 0-1.447-.147 1.392 1.392 0 0 0-1.289.591 3.579 3.579 0 0 0-.365 1.834 3.018 3.018 0 0 0 .426 1.9 1.042 1.042 0 0 0 .412.317m3.163-7.97v8.75h-.9v-.414a3.706 3.706 0 0 1-1.849.537 2.71 2.71 0 0 1-.851-.123 1.741 1.741 0 0 1-.682-.434 3.436 3.436 0 0 1-.658-2.431 4.33 4.33 0 0 1 .59-2.559 2.286 2.286 0 0 1 1.953-.785 7.566 7.566 0 0 1 1.5.159v-2.694Z" fill="#fff"/></g><g data-name="Group 37"><path data-name="Path 39" d="M200.499 79.599h.914v6.093h-.912v-.427a3.472 3.472 0 0 1-1.8.549 1.811 1.811 0 0 1-1.651-.645 4.88 4.88 0 0 1-.407-2.389v-3.181h.912v3.169a4.5 4.5 0 0 0 .231 1.778q.227.453 1.046.453a3.007 3.007 0 0 0 .815-.116 3.7 3.7 0 0 0 .632-.226l.219-.109Z" fill="#fff"/></g><g data-name="Group 38"><path data-name="Path 40" d="M208.112 79.477a10.462 10.462 0 0 1 1.363.146l.292.037-.037.744a14.137 14.137 0 0 0-1.435-.111 1.667 1.667 0 0 0-1.4.494 3.209 3.209 0 0 0-.373 1.828 3.572 3.572 0 0 0 .344 1.862 1.623 1.623 0 0 0 1.44.525l1.436-.11.035.755a12.465 12.465 0 0 1-1.69.171 2.3 2.3 0 0 1-1.965-.735 4.269 4.269 0 0 1-.54-2.468 3.882 3.882 0 0 1 .584-2.438 2.408 2.408 0 0 1 1.946-.7" fill="#fff"/></g><g data-name="Group 39"><path data-name="Path 41" d="M212.053 85.691h-.912v-8.749h.912v3a4.343 4.343 0 0 1 1.873-.463 1.8 1.8 0 0 1 1.636.657 4.664 4.664 0 0 1 .419 2.34v3.217h-.912v-3.192a4.133 4.133 0 0 0-.249-1.737 1.081 1.081 0 0 0-1.052-.47 4.051 4.051 0 0 0-1.484.28l-.231.086Z" fill="#fff"/></g><g data-name="Group 40"><path data-name="Path 42" d="M218.219 83.925q0 1.122.924 1.121a4.9 4.9 0 0 0 1.63-.28l.279-.1v-2.01l-1.799.177a1.173 1.173 0 0 0-.791.317 1.127 1.127 0 0 0-.243.78m3.745-2.491v3.119q.037.451.706.536l-.037.719a1.957 1.957 0 0 1-1.446-.488 5.336 5.336 0 0 1-2.187.489 1.649 1.649 0 0 1-1.28-.475 1.94 1.94 0 0 1-.438-1.364 1.717 1.717 0 0 1 .45-1.31 2.38 2.38 0 0 1 1.411-.518l1.909-.183v-.525a1.232 1.232 0 0 0-.268-.89.982.982 0 0 0-.729-.268 17.438 17.438 0 0 0-2.019.122l-.378.037-.035-.695a12.261 12.261 0 0 1 2.372-.268 2.04 2.04 0 0 1 1.5.475 2.05 2.05 0 0 1 .467 1.487" fill="#fff"/></g><g data-name="Group 41"><path data-name="Path 43" d="M224.678 85.691h-.912v-6.093h.9v.427a3.885 3.885 0 0 1 1.885-.553 1.8 1.8 0 0 1 1.636.657 4.664 4.664 0 0 1 .419 2.343v3.217h-.9v-3.19a4.124 4.124 0 0 0-.249-1.737 1.094 1.094 0 0 0-1.063-.47 3.207 3.207 0 0 0-.821.116 4.051 4.051 0 0 0-.663.226l-.231.109Z" fill="#fff"/></g><g data-name="Group 42"><path data-name="Path 44" d="M231.013 81.561a1.362 1.362 0 0 0 .322 1.024 1.52 1.52 0 0 0 1.063.3 1.5 1.5 0 0 0 1.058-.3 1.386 1.386 0 0 0 .317-1.03 1.389 1.389 0 0 0-.317-1.03 1.5 1.5 0 0 0-1.058-.3 1.5 1.5 0 0 0-1.063.307 1.381 1.381 0 0 0-.322 1.029m-.085 5.081a1.021 1.021 0 0 0 .358.9 2.5 2.5 0 0 0 1.327.25 2.684 2.684 0 0 0 1.386-.268.982.982 0 0 0 .419-.9q0-.627-.3-.81a2.586 2.586 0 0 0-1.192-.183l-1.316-.061a2.134 2.134 0 0 0-.541.512 1.019 1.019 0 0 0-.14.56m1.715 1.913a3.811 3.811 0 0 1-2.038-.4 1.63 1.63 0 0 1-.578-1.444 1.379 1.379 0 0 1 .219-.81 3.415 3.415 0 0 1 .742-.7.945.945 0 0 1-.341-.841 2.1 2.1 0 0 1 .304-.763l.11-.2a1.809 1.809 0 0 1-.96-1.841q0-2.084 2.274-2.083a4.547 4.547 0 0 1 1.082.124l.183.038 1.8-.049v.78l-1.156-.024a1.655 1.655 0 0 1 .4 1.218 1.959 1.959 0 0 1-.565 1.6 2.827 2.827 0 0 1-1.785.461 3.319 3.319 0 0 1-.6-.049 2.591 2.591 0 0 0-.211.694q0 .379.231.47a5.735 5.735 0 0 0 1.4.092 2.957 2.957 0 0 1 1.68.369 1.656 1.656 0 0 1 .511 1.426q0 1.938-2.7 1.937" fill="#fff"/></g><g data-name="Group 43"><path data-name="Path 45" d="M240.352 82.292a2.657 2.657 0 0 0-.358-1.584 1.388 1.388 0 0 0-1.168-.463 1.5 1.5 0 0 0-1.216.487 2.464 2.464 0 0 0-.419 1.56Zm.331 2.647.353-.04.024.719a17.458 17.458 0 0 1-2.372.2 2.138 2.138 0 0 1-1.86-.766 4.1 4.1 0 0 1-.548-2.371q0-3.2 2.542-3.2a2.32 2.32 0 0 1 1.836.689 3.208 3.208 0 0 1 .609 2.159l-.048.695h-4.014a2.5 2.5 0 0 0 .364 1.5 1.491 1.491 0 0 0 1.272.486q.9 0 1.842-.073" fill="#fff"/></g><g data-name="Group 44"><path data-name="Path 46" d="M243.603 85.691h-.912v-6.093h.9v.427a3.441 3.441 0 0 1 1.772-.553 1.825 1.825 0 0 1 1.582.621 4.455 4.455 0 0 1 1.039-.432 4.018 4.018 0 0 1 1.129-.189 1.806 1.806 0 0 1 1.636.651 4.655 4.655 0 0 1 .414 2.349v3.217h-.907v-3.19a4.222 4.222 0 0 0-.243-1.737 1.054 1.054 0 0 0-1.034-.47 3.176 3.176 0 0 0-.827.116 4.041 4.041 0 0 0-.656.226l-.232.109a6.089 6.089 0 0 1 .159 1.78v3.168h-.913v-3.144a4.488 4.488 0 0 0-.238-1.785 1.051 1.051 0 0 0-1.039-.47 2.94 2.94 0 0 0-.8.116 3.722 3.722 0 0 0-.626.226l-.207.109Z" fill="#fff"/></g><g data-name="Group 45"><path data-name="Path 47" d="M256.662 82.292a2.657 2.657 0 0 0-.358-1.584 1.389 1.389 0 0 0-1.168-.463 1.5 1.5 0 0 0-1.216.487 2.464 2.464 0 0 0-.419 1.56Zm.331 2.647.353-.04.024.719a17.458 17.458 0 0 1-2.372.2 2.138 2.138 0 0 1-1.86-.766 4.1 4.1 0 0 1-.548-2.371q0-3.2 2.542-3.2a2.32 2.32 0 0 1 1.836.689 3.208 3.208 0 0 1 .609 2.159l-.048.695h-4.015a2.5 2.5 0 0 0 .365 1.5 1.491 1.491 0 0 0 1.272.486q.9 0 1.842-.073" fill="#fff"/></g><g data-name="Group 46"><path data-name="Path 48" d="M259.913 85.691h-.912v-6.093h.9v.427a3.885 3.885 0 0 1 1.885-.553 1.8 1.8 0 0 1 1.636.657 4.664 4.664 0 0 1 .419 2.343v3.217h-.9v-3.19a4.124 4.124 0 0 0-.249-1.737 1.094 1.094 0 0 0-1.063-.47 3.207 3.207 0 0 0-.821.116 4.051 4.051 0 0 0-.663.226l-.231.109Z" fill="#fff"/></g><g data-name="Group 47"><path data-name="Path 49" d="M268.646 80.391h-1.935v2.915a3.933 3.933 0 0 0 .152 1.377c.1.22.343.329.725.329l1.082-.073.058.752a8.234 8.234 0 0 1-1.241.134 1.587 1.587 0 0 1-1.314-.463 3.02 3.02 0 0 1-.361-1.766v-3.2h-.864v-.792h.864v-1.87h.9v1.865h1.934Z" fill="#fff"/></g></g></g></svg>