<svg xmlns="http://www.w3.org/2000/svg" width="96.841" height="16.535" viewBox="0 0 96.841 16.535"><g transform="translate(18.12 5.538)"><path d="M97.388,37.293a2.346,2.346,0,0,1-1.124-.522,1.994,1.994,0,0,1-.582-1.023,6.159,6.159,0,0,1-.181-1.625v-1a7.68,7.68,0,0,1,.181-1.866,2.027,2.027,0,0,1,.6-1.084,2.32,2.32,0,0,1,1.164-.522,11.241,11.241,0,0,1,1.826-.141h1.686a16.431,16.431,0,0,1,1.926.1,2.825,2.825,0,0,1,1.184.4,1.671,1.671,0,0,1,.6.823,4.233,4.233,0,0,1,.181,1.365h-1.966a1.2,1.2,0,0,0-.06-.4.623.623,0,0,0-.261-.3,1.786,1.786,0,0,0-.6-.18,7.518,7.518,0,0,0-1.084-.06H99.415a7.477,7.477,0,0,0-1.043.06,1.186,1.186,0,0,0-.6.241.881.881,0,0,0-.281.542,6.525,6.525,0,0,0-.06,1v.863a5.577,5.577,0,0,0,.06.923.885.885,0,0,0,.281.522,1.114,1.114,0,0,0,.582.241,6.709,6.709,0,0,0,1,.06H100.9c.421,0,.763-.02,1.023-.04a1.894,1.894,0,0,0,.6-.141.666.666,0,0,0,.3-.321,1.929,1.929,0,0,0,.08-.542h1.967a5.06,5.06,0,0,1-.14,1.324,1.357,1.357,0,0,1-.542.843,2.8,2.8,0,0,1-1.2.461,11.357,11.357,0,0,1-2.047.141H99.194a9.149,9.149,0,0,1-1.806-.141Z" transform="translate(-95.502 -29.447)" fill="#fff"/><path d="M159.873,29.4v1.585h-6.221v1.465h6.02v1.585h-6.02v1.706h6.221v1.585h-8.107V29.4Z" transform="translate(-141.091 -29.361)" fill="#fff"/><path d="M207.921,29.316a3.606,3.606,0,0,1,2.207.542,1.97,1.97,0,0,1,.722,1.686H208.8a1.213,1.213,0,0,0-.04-.3.368.368,0,0,0-.14-.2.681.681,0,0,0-.3-.12,2.9,2.9,0,0,0-.482-.04H204.65a1.346,1.346,0,0,0-.662.14.622.622,0,0,0-.261.6,1.012,1.012,0,0,0,.06.381.441.441,0,0,0,.181.2,1.085,1.085,0,0,0,.3.08,2.3,2.3,0,0,0,.381.02l3.512.14c.442.02.843.06,1.184.1a1.781,1.781,0,0,1,.843.341,1.415,1.415,0,0,1,.5.7,4.315,4.315,0,0,1,.04,2.328,1.67,1.67,0,0,1-.461.742,1.9,1.9,0,0,1-.823.442,4.585,4.585,0,0,1-1.264.14h-3.933a4.585,4.585,0,0,1-1.264-.14,1.879,1.879,0,0,1-.823-.421,1.5,1.5,0,0,1-.442-.7,3.715,3.715,0,0,1-.12-1h1.947a.544.544,0,0,0,.261.482,1.166,1.166,0,0,0,.662.181h3.17a2.28,2.28,0,0,0,.943-.161.653.653,0,0,0,.3-.642,1.166,1.166,0,0,0-.06-.381.612.612,0,0,0-.2-.261.933.933,0,0,0-.4-.161,5,5,0,0,0-.662-.08l-3.05-.12a11.123,11.123,0,0,1-1.365-.12,2.509,2.509,0,0,1-.9-.3,1.16,1.16,0,0,1-.5-.642,3.6,3.6,0,0,1-.161-1.164,3.207,3.207,0,0,1,.161-1.063,1.68,1.68,0,0,1,.5-.722,2.119,2.119,0,0,1,.883-.4,6.145,6.145,0,0,1,1.3-.12h3.492Z" transform="translate(-181.453 -29.276)" fill="#fff"/><path d="M257.527,29.4h1.906v7.926h-1.906Z" transform="translate(-226.785 -29.361)" fill="#fff"/><path d="M276.46,34.146a2.134,2.134,0,0,0,.1.682.97.97,0,0,0,.3.441,1.245,1.245,0,0,0,.522.221,4.524,4.524,0,0,0,.8.06h2.067a4.442,4.442,0,0,0,.783-.06,1.053,1.053,0,0,0,.522-.241,1.116,1.116,0,0,0,.281-.442,2.228,2.228,0,0,0,.1-.682V29.21h1.906v5.117a4.975,4.975,0,0,1-.161,1.325,1.68,1.68,0,0,1-.542.863,2.343,2.343,0,0,1-1,.482,6.769,6.769,0,0,1-1.545.14h-2.809a6.216,6.216,0,0,1-1.485-.161,2.256,2.256,0,0,1-1-.5,1.918,1.918,0,0,1-.562-.883,4.047,4.047,0,0,1-.181-1.284V29.19h1.906Z" transform="translate(-240.581 -29.19)" fill="#fff"/><path d="M333.412,29.4l3.271,5.84,3.391-5.84h2.849v7.926h-1.906V31.508l-3.291,5.819h-2.047l-3.271-5.819v5.819H330.5V29.4Z" transform="translate(-285.914 -29.361)" fill="#fff"/></g><circle cx="8.267" cy="8.267" r="8.267" transform="translate(0 0)" fill="#fff"/><g transform="translate(0.983 0.983)"><g transform="translate(0.682 6.201)"><path d="M22.062,37.862a.857.857,0,0,0-.662.381l-2.288,3.03a1.876,1.876,0,0,1-1.485.783h0a1.876,1.876,0,0,1-1.485-.783l-2.287-3.03a.766.766,0,0,0-1.325,0l-2.287,3.03a1.84,1.84,0,0,1-1.465.783,7.281,7.281,0,0,0,13.866-3.11,5.941,5.941,0,0,0-.06-.843A.675.675,0,0,0,22.062,37.862Z" transform="translate(-8.778 -37.862)" fill="#7a9c49"/></g><path d="M12.466,5.182a7.284,7.284,0,0,0-7.284,7.284,7.884,7.884,0,0,0,.241,1.846.746.746,0,0,0,.442.161.857.857,0,0,0,.662-.381l2.288-3.03a1.8,1.8,0,0,1,2.97,0l2.207,2.91.1.12a.918.918,0,0,0,.642.381.823.823,0,0,0,.642-.381l.1-.12,2.207-2.91a1.876,1.876,0,0,1,1.485-.783,1.142,1.142,0,0,1,.261.02,7.287,7.287,0,0,0-6.963-5.117ZM14.894,9.8a.763.763,0,1,1,.763-.763A.762.762,0,0,1,14.894,9.8Z" transform="translate(-5.182 -5.182)" fill="#6dabe4"/></g><g transform="translate(79.323 4.606)"><path d="M418.068,25.228a.842.842,0,0,1,.288-.664.951.951,0,0,1,.73-.288,1.061,1.061,0,0,1,.73.266.857.857,0,0,1,.288.686.887.887,0,0,1-.288.686,1.06,1.06,0,0,1-.73.266.984.984,0,0,1-.73-.288A.842.842,0,0,1,418.068,25.228Zm.221,1.572h1.594v6.375h-1.594Z" transform="translate(-418.068 -24.276)" fill="#6dabe4"/><path d="M431.368,40.008a3.449,3.449,0,0,1,.266-1.372,3.252,3.252,0,0,1,.73-1.063,3.474,3.474,0,0,1,1.107-.686,3.866,3.866,0,0,1,2.7,0,3.156,3.156,0,0,1,1.837,1.749,3.678,3.678,0,0,1,0,2.745,3.251,3.251,0,0,1-.73,1.063,3.473,3.473,0,0,1-1.107.686,3.866,3.866,0,0,1-2.7,0,3.156,3.156,0,0,1-1.837-1.749A3.528,3.528,0,0,1,431.368,40.008Zm1.594,0a1.916,1.916,0,0,0,.133.708,1.794,1.794,0,0,0,.376.62,1.709,1.709,0,0,0,.6.42,2.014,2.014,0,0,0,1.55,0,2.249,2.249,0,0,0,.6-.42,1.977,1.977,0,0,0,.376-2.037,1.8,1.8,0,0,0-.376-.62,1.71,1.71,0,0,0-.6-.42,2.014,2.014,0,0,0-1.55,0,2.243,2.243,0,0,0-.6.42,1.936,1.936,0,0,0-.376.62A1.834,1.834,0,0,0,432.962,40.008Z" transform="translate(-428.845 -34.297)" fill="#6dabe4"/><path d="M471.386,36.915h1.505v1.018h.022a2.2,2.2,0,0,1,.686-.819,1.988,1.988,0,0,1,1.262-.354,2.376,2.376,0,0,1,1.085.221,2.278,2.278,0,0,1,.73.553,2.244,2.244,0,0,1,.4.8,3.4,3.4,0,0,1,.111.952V43.29h-1.594V40.058a5.787,5.787,0,0,0-.022-.6,2.807,2.807,0,0,0-.133-.62,1.112,1.112,0,0,0-.354-.487.968.968,0,0,0-.642-.2,1.477,1.477,0,0,0-.664.133,1.165,1.165,0,0,0-.443.354,2.232,2.232,0,0,0-.266.509,2.8,2.8,0,0,0-.088.62v3.475h-1.594Z" transform="translate(-461.27 -34.391)" fill="#6dabe4"/></g><g transform="translate(95.343 6.368)"><path d="M502.744,34.364V33.7h-.24v-.14h.639v.14h-.24v.659Z" transform="translate(-502.504 -33.565)" fill="#fff"/><path d="M506.4,34.364v-.8h.24l.14.539.14-.539h.24v.8H507v-.639l-.16.639h-.16l-.16-.639v.639Z" transform="translate(-505.66 -33.565)" fill="#fff"/></g></svg>