<svg xmlns="http://www.w3.org/2000/svg" xmlns:xlink="http://www.w3.org/1999/xlink" width="43.006" height="43.006" viewBox="0 0 43.006 43.006"><defs><clipPath id="a"><rect width="43.006" height="43.006" transform="translate(399.791 545.144)" fill="none"/></clipPath></defs><g transform="translate(-399.791 -545.144)" clip-path="url(#a)"><path d="M442.8,566.647a21.5,21.5,0,1,1-21.5-21.5,21.5,21.5,0,0,1,21.5,21.5" fill="#fff"/><path d="M440.411,572.7a.157.157,0,0,0-.137-.062c-.114.01-.092.031-.7,1.447a19.691,19.691,0,0,1-16.35,11.741h0a19.368,19.368,0,0,1-19.957-12.766,19.108,19.108,0,0,1,.824-14.792,19.5,19.5,0,0,1,11.12-9.948,19.811,19.811,0,0,1,4.9-1.063,19.505,19.505,0,0,1,10.821,2.2,12.5,12.5,0,0,0,1.515.818.155.155,0,0,0,.139-.121c.029-.134.16-.186-1.444-1.083a20.145,20.145,0,1,0-8.119,37.653h0a20.179,20.179,0,0,0,16.936-12.479c.592-1.452.523-1.461.46-1.545" fill="#27348b"/><path d="M415.992,560.357a4.149,4.149,0,0,0-.132-1.847,5.338,5.338,0,0,0-.688-1.908.95.95,0,0,0-1.043-.331l-.1.023,1.053,4.748a1.084,1.084,0,0,0,.914-.685" fill="#27348b"/><path d="M412.329,574.164a.6.6,0,0,0,.474-.592,6.308,6.308,0,0,0-.222-1.734,10.118,10.118,0,0,0-.616-2.1.612.612,0,0,0-1.19.217,8.686,8.686,0,0,0,.291,1.992,8,8,0,0,0,.569,1.847.611.611,0,0,0,.694.366" fill="#27348b"/><path d="M429.611,577.776a.352.352,0,0,0-.085.087.316.316,0,0,0-.049.105.382.382,0,0,0-.011.117.408.408,0,0,0,.03.124l.565-.418a.335.335,0,0,0-.45-.015" fill="#27348b"/><path d="M425.371,569.019q-.406-.963-.775-2.077c.044.379.08.765.1,1.158s.046.811.06,1.256l.024.826.988-.219Z" fill="#27348b"/><path d="M413.957,578.466a.421.421,0,0,0-.347-.055.484.484,0,0,0-.286.23.508.508,0,0,0-.084.369.429.429,0,0,0,.211.285.42.42,0,0,0,.348.058.565.565,0,0,0,.368-.6.426.426,0,0,0-.21-.285" fill="#27348b"/><path d="M420.235,580.488a.348.348,0,0,0-.227.058.362.362,0,0,0-.084.082.4.4,0,0,0-.059.113l.7.052a.336.336,0,0,0-.332-.305" fill="#27348b"/><path d="M418.9,562.75a.3.3,0,0,0-.245.238,2,2,0,0,0,.02.687l.82-.181a2.053,2.053,0,0,0-.271-.631.3.3,0,0,0-.324-.113" fill="#27348b"/><path d="M425.932,579.87a.393.393,0,0,0-.337-.032.385.385,0,0,0-.245.223.508.508,0,0,0-.008.363.526.526,0,0,0,.221.3.382.382,0,0,0,.329.038.4.4,0,0,0,.258-.225.575.575,0,0,0-.218-.668" fill="#27348b"/><path d="M434.344,572.8a.514.514,0,0,0-.367-.057.393.393,0,0,0-.261.21.375.375,0,0,0-.013.347.607.607,0,0,0,.6.312.377.377,0,0,0,.272-.212.389.389,0,0,0,.017-.349.524.524,0,0,0-.252-.251" fill="#27348b"/><path d="M419.132,559.669a.61.61,0,0,0,.694.366.6.6,0,0,0,.474-.592,6.272,6.272,0,0,0-.222-1.734,10.1,10.1,0,0,0-.615-2.1.612.612,0,0,0-.7-.4.6.6,0,0,0-.486.615,8.652,8.652,0,0,0,.29,1.992,8.005,8.005,0,0,0,.569,1.847" fill="#27348b"/><path d="M435.564,573.886a.747.747,0,0,1-.375.368.669.669,0,0,1-.521-.006l.161-.312a.4.4,0,0,0,.184.019.377.377,0,0,0,.272-.216q.176-.342-.241-.557l-.188-.1a.667.667,0,0,1-.463.872.826.826,0,0,1-.6-.084.873.873,0,0,1-.416-.422.648.648,0,0,1,.023-.58.615.615,0,0,1,.408-.326l-.152-.078.161-.311,1.314.679c.063.033.118.064.164.094a.966.966,0,0,1,.119.083.631.631,0,0,1,.194.264.709.709,0,0,1-.049.61m-1.855,1.466-1.256-.848.2-.289.113.075a.648.648,0,0,1-.02-.219.386.386,0,0,1,.069-.171.559.559,0,0,1,.236-.19l.176.312a.34.34,0,0,0-.168.121c-.106.159-.04.318.2.48l.651.439Zm-.877,1.179a.77.77,0,0,1-.549.279.785.785,0,0,1-.589-.205.749.749,0,0,1-.268-.542.787.787,0,0,1,.2-.584.8.8,0,0,1,.552-.283.811.811,0,0,1,.861.747.8.8,0,0,1-.207.588m-1.132,1.174a.21.21,0,0,1-.155.06.215.215,0,0,1-.152-.072.218.218,0,0,1,.012-.3.217.217,0,0,1,.3.011.21.21,0,0,1,.059.155.208.208,0,0,1-.069.15m-.4-12.75a1.54,1.54,0,0,1,1.222-1.118,1.466,1.466,0,0,1,.729.031l.166.748a1.328,1.328,0,0,0-.571-.037.891.891,0,0,0-.475.259,1.074,1.074,0,0,0-.25.527,2.876,2.876,0,0,0-.034.815,8.368,8.368,0,0,0,.178,1.118q.508,2.286,1.68,2.027a1.307,1.307,0,0,0,.464-.237l.169.764a1.383,1.383,0,0,1-.635.317q-1.877.415-2.555-2.648a5.274,5.274,0,0,1-.088-2.566m-1.085,5.961-1.546-2.574c-.144-.239-.283-.486-.419-.741s-.507-1.049-.538-1.115c.023.067.283.915.283.915s.242.847.257.908.689,2.89.689,2.89l-.824.182-1.369-6.176.776-.171,1.374,2.28a23.105,23.105,0,0,1,1.13,2.087c-.172-.463-.318-.884-.435-1.263s-.215-.74-.291-1.081l-.51-2.3.832-.184,1.369,6.176Zm.483,7.353a.753.753,0,0,1-.049.208.678.678,0,0,1-.1.175.9.9,0,0,1-.162.15.713.713,0,0,1-.566.149.822.822,0,0,1-.512-.346.839.839,0,0,1-.185-.586.691.691,0,0,1,.3-.493.683.683,0,0,1,.552-.143.841.841,0,0,1,.5.357l.048.067-.873.646a.466.466,0,0,0,.275.167.37.37,0,0,0,.285-.077.353.353,0,0,0,.137-.178.872.872,0,0,0,.017-.3l.336-.043a1.131,1.131,0,0,1,0,.246m-1.872,1.5-.6-1.025-.129.076-.165-.282.129-.076-.281-.478.3-.177.28.478.235-.137.165.281-.234.138.6,1.025Zm-1.39.7-.644-1.371.317-.149.058.123a.665.665,0,0,1,.1-.2.4.4,0,0,1,.147-.112.563.563,0,0,1,.3-.041l-.009.358a.332.332,0,0,0-.206.017c-.173.082-.2.252-.076.514l.335.71Zm-1.069.424-.049-.151a.672.672,0,0,1-.944.281.844.844,0,0,1-.372-.487.817.817,0,0,1,.018-.6.655.655,0,0,1,.414-.374.642.642,0,0,1,.519.06l-.054-.166.334-.109.469,1.44Zm-2.325-8.607-.025-6.475.648-.143,2.694,5.883-.824.182-.5-1.152-1.224.271.031,1.256Zm.255,9.178-.162-.881a.426.426,0,0,0-.111-.248.249.249,0,0,0-.219-.043.287.287,0,0,0-.233.158.788.788,0,0,0,0,.4l.132.721-.344.063-.473-2.584.344-.063.223,1.218a.6.6,0,0,1,.375-.24.531.531,0,0,1,.434.09.677.677,0,0,1,.211.431l.168.913Zm-2.081.318a.813.813,0,0,1-.6-.2.755.755,0,0,1-.264-.555.77.77,0,0,1,.211-.584.81.81,0,0,1,.576-.261.883.883,0,0,1,.428.086l.022.465a.832.832,0,0,0-.224-.19.411.411,0,0,0-.221-.045.427.427,0,0,0-.321.154.481.481,0,0,0-.114.352.5.5,0,0,0,.143.344.426.426,0,0,0,.331.121.451.451,0,0,0,.22-.065.92.92,0,0,0,.209-.216l.022.461a.911.911,0,0,1-.42.131m-1.133-15.32.831-.184,1.37,6.176-.832.184Zm-.173,14.562-.008.082-1.082-.08a.464.464,0,0,0,.1.3.367.367,0,0,0,.266.128.356.356,0,0,0,.221-.045.881.881,0,0,0,.208-.216l.282.187a1.18,1.18,0,0,1-.159.188.766.766,0,0,1-.173.125.65.65,0,0,1-.194.064.931.931,0,0,1-.22.009.716.716,0,0,1-.527-.258.818.818,0,0,1-.161-.6.84.84,0,0,1,.241-.565.758.758,0,0,1,1.059.072.839.839,0,0,1,.148.6m-2.961-13.867,2.223-.493.156.7-1.391.309.432,1.951,1.256-.278.156.7-1.255.278.624,2.816-.832.185Zm1.155,13.261-.267-.05-.219,1.168-.343-.064.218-1.168-.147-.027.06-.321.147.027.1-.546.343.065-.1.545.267.05Zm-1.011-1.183a.224.224,0,0,1-.107.139.212.212,0,0,1-.172.023.223.223,0,0,1-.139-.107.227.227,0,0,1-.022-.175.228.228,0,0,1,.44.12m-.608,2.056-.338-.091.394-1.463.338.091Zm-.7-1.142-.357.866-.324-.134.32-.778a.66.66,0,0,0,.068-.3.193.193,0,0,0-.131-.153.226.226,0,0,0-.236.021.7.7,0,0,0-.194.3l-.3.724-.325-.135.319-.773c.1-.249.081-.4-.063-.462a.235.235,0,0,0-.241.019.709.709,0,0,0-.2.3l-.3.723-.324-.133.576-1.4.324.133-.053.129a.784.784,0,0,1,.214-.067.427.427,0,0,1,.191.037.467.467,0,0,1,.291.361.527.527,0,0,1,.5-.037c.315.131.394.386.237.769m-2.889-.482a.8.8,0,0,1-.615-.107.772.772,0,0,1-.365-.5.786.786,0,0,1,.105-.614.758.758,0,0,1,.491-.354.83.83,0,0,1,.979.6.776.776,0,0,1-.1.608.767.767,0,0,1-.5.364m-1.155-1.953a.416.416,0,0,0-.135-.181.434.434,0,0,0-.343-.1.484.484,0,0,0-.319.188.491.491,0,0,0-.122.351.422.422,0,0,0,.167.31.439.439,0,0,0,.207.1.878.878,0,0,0,.3-.022l-.29.359a.928.928,0,0,1-.4-.181.815.815,0,0,1-.314-.546.756.756,0,0,1,.172-.59.765.765,0,0,1,.546-.3.808.808,0,0,1,.6.188.888.888,0,0,1,.262.349l-.292.362a.861.861,0,0,0-.041-.291m-1.657-3.252a6.472,6.472,0,0,1-.935-2.491,5.543,5.543,0,0,1-.157-2.412,1.312,1.312,0,0,1,1.08-.961,1.349,1.349,0,0,1,1.27.276,2.591,2.591,0,0,1,.584.933,10.73,10.73,0,0,1,.506,1.751,5.464,5.464,0,0,1,.151,2.4,1.3,1.3,0,0,1-1.068.958,1.33,1.33,0,0,1-1.431-.458m-1.671,1.147q-1.875.416-2.555-2.648a5.274,5.274,0,0,1-.088-2.566,1.545,1.545,0,0,1,1.223-1.119,1.462,1.462,0,0,1,.728.032l.166.748a1.292,1.292,0,0,0-.57-.037.893.893,0,0,0-.476.258,1.1,1.1,0,0,0-.25.528,2.916,2.916,0,0,0-.033.815,8.182,8.182,0,0,0,.178,1.117q.507,2.287,1.679,2.028a1.294,1.294,0,0,0,.464-.238l.169.765a1.388,1.388,0,0,1-.635.317m4.648-20.057a2.646,2.646,0,0,1,.811-.071,1.286,1.286,0,0,1,.607.239,2.282,2.282,0,0,1,.717.89,7.676,7.676,0,0,1,.527,1.675,7.047,7.047,0,0,1,.2,1.7,1.868,1.868,0,0,1-.319,1.057,2.521,2.521,0,0,1-1.531.763l-.672.149-1.369-6.176Zm.994,14.718s.242.847.257.909.689,2.889.689,2.889l-.824.183-1.369-6.176.776-.172,1.374,2.281a22.852,22.852,0,0,1,1.13,2.086c-.172-.463-.318-.883-.435-1.263s-.215-.74-.29-1.081l-.511-2.3.832-.185,1.369,6.176-.778.172-1.546-2.573c-.144-.24-.283-.487-.419-.742s-.507-1.049-.538-1.115c.023.068.283.915.283.915m4.391-5.245q.406-.09.269-.71l.6-.133q.178,1.14-.767,1.349a1.119,1.119,0,0,1-.5.011.825.825,0,0,1-.4-.22,1.522,1.522,0,0,1-.308-.465,3.788,3.788,0,0,1-.224-.719,2.421,2.421,0,0,1-.019-1.309.906.906,0,0,1,.711-.584q1.053-.234,1.427,1.455l.016.073-1.479.329q.227,1.021.673.923m-1.956-9.595a1.313,1.313,0,0,1,1.08-.962,1.348,1.348,0,0,1,1.269.277,2.6,2.6,0,0,1,.586.931,11.075,11.075,0,0,1,.505,1.752,5.468,5.468,0,0,1,.151,2.4,1.3,1.3,0,0,1-1.067.959,1.335,1.335,0,0,1-1.433-.459,6.487,6.487,0,0,1-.934-2.492,5.538,5.538,0,0,1-.157-2.411m3.836,6.312.08.367a.857.857,0,0,1,.626-.579.671.671,0,0,1,.676.17,1.519,1.519,0,0,1,.251.646l.5,2.267-.647.144-.475-2.131a.935.935,0,0,0-.187-.44.323.323,0,0,0-.321-.071.44.44,0,0,0-.18.077.289.289,0,0,0-.1.141.613.613,0,0,0-.024.221,1.848,1.848,0,0,0,.047.316l.457,2.06-.647.144-.707-3.188Zm.756-7.968,1.374,2.28a23,23,0,0,1,1.13,2.087q-.26-.693-.435-1.263c-.118-.379-.214-.741-.29-1.082l-.512-2.3.833-.185,1.369,6.176-.778.173-1.547-2.574q-.214-.36-.418-.743c-.136-.256-.507-1.048-.539-1.114.024.068.283.915.283.915s.242.847.258.908.69,2.89.69,2.89l-.825.183-1.37-6.176Zm14.254,9.306.156.7-1.38.306.433,1.956,1.225-.271.156.7-1.224.272.467,2.109,1.38-.307.156.7-2.212.49-1.369-6.176Zm-15.043-14.53a18.1,18.1,0,1,0,18.1,18.1,18.1,18.1,0,0,0-18.1-18.1" fill="#27348b"/><path d="M432.528,575.663a.5.5,0,0,0-.347-.138.467.467,0,0,0-.428.494.491.491,0,0,0,.18.32.507.507,0,0,0,.351.143.469.469,0,0,0,.43-.495.5.5,0,0,0-.186-.324" fill="#27348b"/></g></svg>