<svg xmlns="http://www.w3.org/2000/svg" width="72.186" height="74.497" viewBox="0 0 72.186 74.497"><path d="M291.643,489.67c-4.041-9.207-12.526-15.063-20.793-17.176a32.541,32.541,0,0,0-23.575,3.474c-13.508,4.4-24.162,19.9-22.436,39.252,1.026,11.563,6.661,19.655,14.164,24.333a14.464,14.464,0,0,0,8.526,3.682,33.68,33.68,0,0,0,12.192.891c.679.207,1.358.394,2.045.551l.087.133a3.906,3.906,0,0,0,5.033.663,22.362,22.362,0,0,0,11.745-2.116c10.661-5.329,18.284-22.128,18.21-35.754C296.8,500.241,294.84,494.307,291.643,489.67Zm-7.007-1.1a28.445,28.445,0,0,1,3.416,3.66c.25.334.463.677.692,1.019a28.129,28.129,0,0,1,.919,12.626,55.393,55.393,0,0,0-1.883-10.1c-.157-.711-.28-1.429-.45-2.149a2.264,2.264,0,0,0-.632-1.136c-.157-.455-.285-.9-.459-1.353a1.589,1.589,0,0,0-1.954-1A2.357,2.357,0,0,0,284.636,488.566Zm-11.5-10.814a40.011,40.011,0,0,0-7.293-.95,26.727,26.727,0,0,0-3.27-.927A32.22,32.22,0,0,1,273.132,477.752Zm-10.03,2.939a23.562,23.562,0,0,1,4.31,2.228l.18.052c-.775-.016-1.546-.049-2.327,0a1.664,1.664,0,0,0-1.677.185c-.753.079-1.505.144-2.259.282a1.879,1.879,0,0,0-3.061-.823l-.391.42a3.32,3.32,0,0,0-.381-1.761A34.863,34.863,0,0,1,263.1,480.691Zm-12.056,16.042.086-.128a.7.7,0,0,1,.869-.3c3.367-1.048,6.979-2.343,10.5-2.337a15.132,15.132,0,0,1,4.921,1.118,9.5,9.5,0,0,0,1.321.342.755.755,0,0,1,.52.079l.3.034a.749.749,0,0,1,1.27.036,17.648,17.648,0,0,0,3.161-.438l.365.013,2.615-1.478a.751.751,0,0,1,1,.263,93.65,93.65,0,0,0,8.447,10.507.744.744,0,0,1-.146,1.151l-1.055.768a5.79,5.79,0,0,1-.582.663l-.1.138a5.35,5.35,0,0,1-1.857,1.416c-.194.133-.381.254-.556.368l-.131.086a.692.692,0,0,1-.2.548,23.83,23.83,0,0,1-4.443,3.519.74.74,0,0,1-.888-.115c-.588-.64-1.2-1.254-1.82-1.854a72.541,72.541,0,0,0-16.479-9.753l-.157-.089a14.907,14.907,0,0,1-1.9.9.585.585,0,0,1-.483-.011,6.4,6.4,0,0,1-7.728,3.777l0,.087a.982.982,0,0,1-.342-.207c-1.478-.587-1.338-1.7-.522-2.986,1.295-2.04,2.646-4.048,3.972-6.068Zm35.512,16.509a78.17,78.17,0,0,0-3.575,9.364c-.468.635-1,1.167-1.51,1.75-.251-.25-.483-.515-.723-.775.625-1.935,1.3-3.845,2.058-5.7Q284.76,515.64,286.558,513.241ZM230.8,524.014a35.064,35.064,0,0,1-2.491-9.547,4.43,4.43,0,0,0,.582.371,3.321,3.321,0,0,0,1.2.2c.237,1.039.5,2.079.813,3.135.36,1.167.849,2.285,1.314,3.424a30.824,30.824,0,0,0,.18,5.415A23.634,23.634,0,0,1,230.8,524.014Zm.783-22.975a28.636,28.636,0,0,1,2.772-8.147c1.23-1.295,2.377-2.679,3.547-4.043a102.842,102.842,0,0,0-4.586,9.871C232.742,499.494,232.168,500.269,231.585,501.038Zm6.733,27.122c-.06.207-.136.4-.2.609l-.01.112a38.417,38.417,0,0,1-3.67-5.76c.138-1.251.308-2.492.519-3.745.319,1.008.666,2,1.068,2.97a9.349,9.349,0,0,0,1.139,4.839A2.134,2.134,0,0,0,238.318,528.16Zm-.374-10.981.053-.348.044-.251c.29-1.441.987-3.059,2.38-2.842,1.074.167,1.184,1.027.95,1.943a2.484,2.484,0,0,1-.146.465,7.676,7.676,0,0,1-.927,1.755c-.442.6-1.1,1.505-1.964,1.209S237.627,517.834,237.943,517.179Zm1.935,17.815a13.327,13.327,0,0,1-3.236-5.252,38.809,38.809,0,0,0,6.13,7A26.584,26.584,0,0,1,239.878,534.994Zm2.988-12.744a.618.618,0,0,1-.932-.034,2.305,2.305,0,0,1-.546-.23.748.748,0,0,1-.147-1.154c.423-.507.846-1.019,1.267-1.526a8.973,8.973,0,0,1,3.213-4.451.774.774,0,0,1,1.079.41.71.71,0,0,1,.671.907C246.966,517.819,245.1,521.812,242.866,522.249Zm4.106,2.5a.982.982,0,0,1-1.312-.442,1.189,1.189,0,0,1-.113-.541l0-.262a6.6,6.6,0,0,1,1.873-3.764l.167-.161.026-.089a4.272,4.272,0,0,1,1.933-2.346.679.679,0,0,1,.506-.086c.622-.1.906.12.988.468,1.141.766.206,2.711-.441,3.45l-.416.222a15.153,15.153,0,0,1-.927,1.306A7.153,7.153,0,0,1,246.972,524.751Zm6.556.079a10.329,10.329,0,0,1-1.217,1.995.775.775,0,0,1-1.094.183,1.127,1.127,0,0,1-.8.045c-1.455-.416-.345-2.541.219-3.254.613-.776,2.393-2.173,3.174-.812C254.149,523.581,253.778,524.281,253.528,524.83Zm17.6,6.976c-.216.87-.561,2.1-.938,3.49a53.625,53.625,0,0,1-4.843,6.444l-.11-.06c.447-1.664.933-3.3,1.429-4.937,2-3,3.9-6.088,5.728-9.228C271.973,528.948,271.492,530.341,271.129,531.806Zm1.7-11.179c-1.325.449-2.5-.094-3.738-.611q-1.791-.749-3.537-1.6c-1.355-.66-2.678-1.371-3.98-2.121-.078.4-.183.813-.243,1.212a4.58,4.58,0,0,1,.194.692,29.846,29.846,0,0,1,6.127,3.72.757.757,0,0,1,.313.752,1.72,1.72,0,0,1,.459,1.491.741.741,0,0,1-.9.514,43.357,43.357,0,0,1-7.342-2.758c-.658-.275-1.428-.531-2.2-.825-.105.348-.216.7-.313,1.048l.068.206q1.779.911,3.562,1.817a6,6,0,0,1,2.186,1.317,1.122,1.122,0,0,1-.9,1.859,7.241,7.241,0,0,1-1.64-.07,10.724,10.724,0,0,1-3.37-.411,4.529,4.529,0,0,1-.81-.182.745.745,0,0,1-.984-1.011l.01-.021-.029-.337-.01-.342a.753.753,0,0,1-.026-.58c-.008-.582,0-1.168.013-1.755-.118-.182-.235-.365-.353-.549a.629.629,0,0,1,.045-.8,2.726,2.726,0,0,0-1.444-.553.747.747,0,0,1-.635-1.105,3.355,3.355,0,0,0-1.272-4.445.705.705,0,0,1-1.173.25.8.8,0,0,1-.851-.742,6.465,6.465,0,0,0-.5-2.016l-.019-.057a4.2,4.2,0,0,0-2.755-1.209,4.79,4.79,0,0,0-1.761,1.238.743.743,0,0,1-1.228-.321,2.5,2.5,0,0,0-3.322-1.33c-.813.287-1.462,1.287-2.249,1.436a1.355,1.355,0,0,1-.512,0l-.373-.11-.1-.06-.147-.092q-1.249-.783-2.5-1.56a.776.776,0,0,1-.345-.512c-.455-.016-.92-.41-.721-.909l.295-.737a.629.629,0,0,1,.037-.661,31.55,31.55,0,0,1,2.764-3.487q.457-.775.886-1.562,1.266-2.341,2.3-4.795a10.343,10.343,0,0,1,.535-1.144.786.786,0,0,1,.987-.9l.35-.1c1.225-.2,2.037.822,2.993,1.376a.711.711,0,0,1,.31.831c.4.261.784.53,1.172.807l.254.308a1.9,1.9,0,0,1,.911,1.141c.118.7-.444,1.356-.773,1.909a13.4,13.4,0,0,0-1.513,3.132c-.489,1.713.83,2.209,2.215,2.568a7.79,7.79,0,0,0,8.392-3.119l.224-.326.144-.224a.677.677,0,0,1,.637-.344.591.591,0,0,1,.841-.433c5.582,2.343,11.025,5.146,15.483,9.259a16.948,16.948,0,0,1,3.576,3.34c.293.373.288,1.137-.324,1.227-1.784.258-3.131-.7-4.616-1.564l-4.2-2.45c-.715-.256-1.437-.484-2.17-.681-.6-.164-1.262-.243-1.865-.437-.126.207-.254.413-.381.621.3.747,2.166,1.758,2.369,1.883q1.232.751,2.466,1.505,2.591,1.577,5.179,3.158A.743.743,0,0,1,272.825,520.627Zm4.142,13.926c-.967,1.436-1.978,2.844-2.99,4.244-.19-.133-.378-.25-.561-.392.285-1.2.553-2.4.919-3.6,1.805-2.73,3.447-5.663,5.133-8.539.35-.591.669-1.207,1.019-1.8C279.2,527.758,278.038,531.126,276.967,534.553Zm3.223,2.089a23.815,23.815,0,0,0,3.891-7.828,54.741,54.741,0,0,0,8.71-17.87,45.03,45.03,0,0,1-4.766,15.914A27.864,27.864,0,0,1,280.19,536.641Z" transform="translate(-224.656 -471.609)" fill="#00558c"/></svg>