<svg xmlns="http://www.w3.org/2000/svg" width="72.801" height="74.506" viewBox="0 0 72.801 74.506"><path d="M345.455,484.836a14.476,14.476,0,0,0-7.9-4.885,33.709,33.709,0,0,0-11.931-2.661c-.642-.3-1.287-.587-1.943-.844l-.066-.144a3.91,3.91,0,0,0-4.882-1.39,22.4,22.4,0,0,0-11.929.379c-11.325,3.719-21.316,19.224-23.231,32.716-1.032,7.288.039,13.446,2.526,18.5,2.654,9.7,10.192,16.729,18.064,20.023a32.52,32.52,0,0,0,23.829,0c14-2.384,26.8-16.155,27.922-35.555C356.587,499.389,352.194,490.559,345.455,484.836Zm-15.907-3.811c-.026,0-.013,0-.165,0ZM292.87,528.619a28.1,28.1,0,0,1-2.845-4.119c-.2-.368-.361-.74-.538-1.108a28.135,28.135,0,0,1,.933-12.628,55.645,55.645,0,0,0,.389,10.272c.053.726.068,1.452.133,2.191a2.284,2.284,0,0,0,.457,1.215c.091.473.151.932.258,1.4a1.6,1.6,0,0,0,1.787,1.278A2.332,2.332,0,0,0,292.87,528.619Zm-4.8-23.327a45.035,45.035,0,0,1,7.037-15.047,27.837,27.837,0,0,1,9.178-8.538,23.765,23.765,0,0,0-4.991,7.177A54.679,54.679,0,0,0,288.068,505.292Zm8.491,28.885c.355-.817.786-1.85,1.264-3.084q2.358-2.968,4.461-6.091c-1.816,3.3-3.555,6.626-5.169,9.938C296.928,534.687,296.741,534.428,296.558,534.177Zm6.114,6.82a39.707,39.707,0,0,0,7.076,2,27.113,27.113,0,0,0,3.1,1.4A32.207,32.207,0,0,1,302.672,541Zm34.785-3.937a6.884,6.884,0,0,1-1.381.679,2.773,2.773,0,0,1-2.525-.549,10.266,10.266,0,0,1-2.363-1.6,2.825,2.825,0,0,1,.339-1.643c.2,0,.6-.611.182-2.547a26.94,26.94,0,0,0-1.99-6.248c-.091-1.374-.125-3.019.2-3.019a4.381,4.381,0,0,1-1.006-1.245c-.06-.476-.564-1.932-.379-1.991-.133.032-1.295.216-1.57.216.013,0-.69-2.423-.953-3.424.126,1.061.165,3.469.164,3.469-.13,0-.784.133-.515.133-.107,0-.64,2.176-.911,2.755-.29.575.5,1.509.465,2.62.178,1.11-.259,5.462.149,6.35a4.308,4.308,0,0,0,.345,1.6c.326.355-.254.976-.094,1.155a2.643,2.643,0,0,1-.031,1.6c.083.222-.36,1.022-.493,1.377a3.874,3.874,0,0,1-2.821.977c-.732-.133-1.154-.89-.656-1.2.207-.311,1.037-2.842,1.478-3.066.34-.22.408-.843.431-1.465a40.965,40.965,0,0,1-1.489-5.773,10.549,10.549,0,0,1-.337-4.441c-.026-1.865-.415-2.089-.139-2.223.134,0-.058-.065-.191-.125-.426.648-.169,1.667-.46,2.249-.911.6-1.382.784-.844,1.014-.191.23-.565.645-.749.83-.58.186-.969.692-.9.83-.653.139-.217,1.384.666,2.951-.914,1.567-.611,3.873-1.272,4.472-.5.6-.133,2.4.227,2.4.083,0,.068.553-.358,1.06.8.507.407,1.2.878,1.2-.211,0-.122,1.384-.95,1.661a5.666,5.666,0,0,1-1.752.139,1.743,1.743,0,0,0,2.233.128c.156-.115.293-.241.447-.358a3.329,3.329,0,0,0,.12,1.8,34.776,34.776,0,0,1-5.631-.245,23.674,23.674,0,0,1-3.936-2.834l-.17-.078c.4.066.789.136,1.183.2a4.386,4.386,0,0,0,1.2-1.424,2.472,2.472,0,0,1,1.439-1.115.5.5,0,0,1-.556-.266.485.485,0,0,1-.041-.619c0-.467,0-.935,0-1.4l.018-.133c-.006-.825-.031-1.65-.078-2.473q-.1-1.23-.2-2.461a.486.486,0,0,1,.3-.457c-.036-.692-.088-1.385-.149-2.077l-.045-.394c-.7-.071-1.51-.237-1.771-.635.844-.692.81-1.292,1.074-1.292a4.257,4.257,0,0,1-1.466-.126,28.071,28.071,0,0,1-.671,3.179q-.323,3.111-.9,6.187a.453.453,0,0,1-.442.358c-.015.225-.024.45-.044.676a.52.52,0,0,1-.68.462l.06.11.41.152a.843.843,0,0,1,.131,1.3.531.531,0,0,1-.543.113,3.331,3.331,0,0,1-.557,1.366.51.51,0,0,1,.17.823,2.008,2.008,0,0,1-2.845-.186c-.415-.037-.833-.073-1.251-.1a.56.56,0,0,1-.5-.463.48.48,0,0,1-.143-.794,6.094,6.094,0,0,1,2.62-1.244c-.039-.408-.081-.818-.125-1.227a.465.465,0,0,1-.246-.433q-.022-1.206-.042-2.413a.5.5,0,0,1,.337-.47c.024-.261.052-.522.078-.781l.172-.376c.052-.745.1-1.494.157-2.241l.058-.207a43.293,43.293,0,0,0-.008-4.471.454.454,0,0,1-.314-.455q.034-1.444,0-2.888-.168-1.266-.41-2.52a.513.513,0,0,1,.11-.441c.036-.329.073-.656.107-.985q-.063-.834-.147-1.666l.1-.3,0-.084a.452.452,0,0,1,.3-.452l.044-.066.013-.049-.057-.138-.3-.135-.279-.3-.217-.241a4.53,4.53,0,0,1-.562-.744,3.516,3.516,0,0,0,.134,1.554.527.527,0,0,1-.251.575l.063.105a.506.506,0,0,1-.18.687.517.517,0,0,1-.689-.18q-.488-.722-.979-1.442a.484.484,0,0,1,.008-.507,4.047,4.047,0,0,1,.011-2.354l.089-.173-.036-.2c.016-.64.039-1.28.063-1.919a1.227,1.227,0,0,1-1.045-1.084,1.242,1.242,0,0,1,.334-.95c0-.439,0-.878,0-1.319l.133-.337c.015-.245.031-.489.045-.732.058-.9.083-1.818.2-2.716a21.6,21.6,0,0,0,.512-2.418,3.721,3.721,0,0,1,.431-2.2l.352-.238q.131-1.082.275-2.162a.509.509,0,0,1,.619-.353l0,0,.011-.013a.532.532,0,0,1,.2-.65,4.852,4.852,0,0,1,2-.872l.118-.011a8.716,8.716,0,0,1,1.427-.577l.348.019a6.782,6.782,0,0,1,.776-.386c-.151-.407-.282-.822-.392-1.241a.624.624,0,0,1-.52-.141,2.155,2.155,0,0,1-.541-.823l-.4-.062a1.032,1.032,0,0,1-.405-1.189,1.382,1.382,0,0,1,.4-.6,2.251,2.251,0,0,1-.083-1.723l.17-.256.115-.426a3.281,3.281,0,0,1,.6-1.044,2.273,2.273,0,0,1,1.394-1.011,3.516,3.516,0,0,1,2.764.019,3.576,3.576,0,0,1,.439.241.547.547,0,0,1,.818.083,5.467,5.467,0,0,1,.353.57.5.5,0,0,1,.506.363,6.869,6.869,0,0,1,.135,1.6,4.935,4.935,0,0,1,.225.58l.068.251a5.235,5.235,0,0,1-.233,3.344.551.551,0,0,1-.559.266.529.529,0,0,1-.416-.3l-.207.044a.623.623,0,0,1-.47-.167l-.045.024v.006a2.491,2.491,0,0,0,.455,1.4l.089.084.264.091.407.042.026.018.136,0a.5.5,0,0,1,.442.271l.29.028a7.208,7.208,0,0,1,1.131.2c.373.057.747.118,1.116.188a3.371,3.371,0,0,1,1.82.726,3.407,3.407,0,0,1,.75,1.505,7.5,7.5,0,0,1,2-1.458c.292-.394,1.016-.574,1.421-.907,1.5-.728,1.766-1.624.554-2.9-.316-.76-1.11-2.022.1-2.547.026-.3.194-1.264.272-1.923.22-1.826,1.392-2.756,3.761-2.661a2.277,2.277,0,0,1,2.141,1.484h.1c-.115,0-.019.006.28.01a1.017,1.017,0,0,1,.159,1.449c.51.256.63.517.543.779-.389.063-.224.123-.185.182l-.057.112c-.188.015-.1.031.087.042l-.107.036c-.326.454-.015.912-.018,1.368-.2.125.4.376.439.692-.723.538-.494,1.053-.92,1.243.279.032-.241.047-.177.045a31.326,31.326,0,0,1-1.876,2.76c.348.481,2.264.937,2.466,1.515.588.645,1.666,1.355,1.972,2.2.653,1.953,1.055,4.036,1.789,6.013.567,2.359-.518,3.594-2.064,4.874-.421.228-.789.4-.48.494a25.8,25.8,0,0,0,.454,4.9,6.687,6.687,0,0,0,.232,4.031h.3c.369,1.11.71,3.275.834,3.377.107.133-.716.8-.745,1.244.073.444.476,1.643.572,2.22a11.293,11.293,0,0,1,.52,2.931c.569,1.466-.2,6.974.173,7.86.342.89.475,1.723.658,2.077a5.911,5.911,0,0,0,1.222.969c.1.135.42.57.323.766.4.457.961.8.962,1.146C337.48,536.575,337.488,536.855,337.457,537.06Zm6.465-47.839a13.355,13.355,0,0,1,2.437,5.668,38.632,38.632,0,0,0-5.046-7.815A26.183,26.183,0,0,1,343.922,489.221Zm.088,7.805a2.138,2.138,0,0,0-1-1.134c.091-.2.191-.379.288-.574l.024-.109a38.5,38.5,0,0,1,2.79,6.234c-.316,1.219-.666,2.421-1.06,3.63-.169-1.045-.365-2.076-.624-3.095A9.337,9.337,0,0,0,344.01,497.026Zm-1.222,38.152c-1.406,1.1-2.743,2.3-4.1,3.481a103.009,103.009,0,0,0,5.976-9.1c.685-.681,1.364-1.363,2.053-2.038A28.475,28.475,0,0,1,342.788,535.178Zm9.06-24.414a3.314,3.314,0,0,0-1.155-.374c-.081-1.063-.19-2.129-.347-3.22-.185-1.207-.506-2.385-.8-3.581a31.168,31.168,0,0,0,.612-5.385,23.935,23.935,0,0,1,1.139,3.2,34.988,34.988,0,0,1,1.069,9.81A4.005,4.005,0,0,0,351.848,510.764Z" transform="translate(-283.182 -474.286)" fill="#00558c"/></svg>