<svg xmlns="http://www.w3.org/2000/svg" width="77.003" height="75.47" viewBox="0 0 77.003 75.47"><path d="M482.53,511.023a27.929,27.929,0,0,0-4.182-17.917,28.859,28.859,0,0,0-3.071-4.119,27.659,27.659,0,0,0-4.62-6.41c-5.044-5.261-12.488-6.017-19.133-6.2a29.938,29.938,0,0,0-10.285,1.175,24.135,24.135,0,0,0-8.512,1.69,26.64,26.64,0,0,0-4.33,2.056.772.772,0,0,0-1.053-.324c-3.365,1.5-6.452,3.288-8.786,6.426a77.813,77.813,0,0,0-6.3,9.912q-.814,1.536-1.538,3.134a17.745,17.745,0,0,0-1.029,2.418,44.133,44.133,0,0,0-1.834,5.746c-1.034,4.257-2.043,9.032-1.593,13.457a35.263,35.263,0,0,0,2.149,9.045c-.015,2.873,2.3,6.392,3.735,8.047a12.929,12.929,0,0,0,1.675,1.619c.6.791,1.219,1.562,1.87,2.322,5.109,5.944,13.286,8.189,20.467,8.612a52.874,52.874,0,0,0,24.367-3.959c6.877-2.99,13.7-8,17.983-14.726a29.8,29.8,0,0,0,3.912-10.626C483.129,518.7,483.593,514.693,482.53,511.023Zm-70.012,19.224a3.3,3.3,0,0,1,.713-.12c.172.295.347.585.53.872a5.333,5.333,0,0,0-.154.614A2.261,2.261,0,0,1,412.518,530.247Zm5.926,9.747-.073-.026a10.639,10.639,0,0,1-3.309-2.223c-.614-.849-1.217-1.714-1.784-2.6l.06.016a3.051,3.051,0,0,0,.716.018,10.581,10.581,0,0,0,4.4,4.633Zm-2.175-32.251a2.6,2.6,0,0,1,1.371.854c-.272,1.2-.509,2.4-.71,3.631l-.019.126-.1.084A28.406,28.406,0,0,1,416.269,507.743Zm2.844-4.425c-.188.564-.365,1.126-.533,1.693l-.105.318a6.036,6.036,0,0,0-1.622-.789,14.039,14.039,0,0,1,1.575-2.424,10.968,10.968,0,0,1,.8-.885l.078.222C419.234,502.072,419.176,502.7,419.113,503.318Zm-.387-7.8c.143-.335.293-.669.447-1a3.934,3.934,0,0,0,.193,1.212A4.634,4.634,0,0,0,418.726,495.517Zm47.835,3.7c.138.177.272.355.408.533l-.178.177c-.159.167-.316.34-.472.514Q466.461,499.829,466.561,499.213Zm.052,35.781q-.654.5-1.314,1l.248-.329q.4-.712.781-1.439l.373-.376c-.037.36-.071.718-.089,1.084Zm-5.754-14.8c.408-.854.813-1.706,1.2-2.573-.491,2.563-1.063,5.109-1.614,7.663l-.2-.141a11.264,11.264,0,0,0,.768-4.276A2.019,2.019,0,0,0,460.859,520.193Zm-.632-26.71a7.6,7.6,0,0,0,.3-.713l.136-.4a4.662,4.662,0,0,0,.361.885Q460.626,493.349,460.227,493.482Zm2.12,44.6q.856-.817,1.692-1.65a1.47,1.47,0,0,0,.826-.131q-.44.326-.883.646c-.682.488-1.355,1-2.024,1.515l-.006,0Zm1.515-14.556c.214-.984.428-1.967.635-2.951a1.262,1.262,0,0,0,1.029.037A14.84,14.84,0,0,1,463.861,523.531Zm-5.783-40.719c.823.684,1.752,1.257,2.392,1.768a37.467,37.467,0,0,1,5.224,5.174,64.121,64.121,0,0,0-5.952-4.08,8.479,8.479,0,0,0-1.761-1.962A4.217,4.217,0,0,0,458.078,482.812ZM454.4,538.983c.214-.07.428-.136.642-.2-.334.4-.669.794-.977,1.144C454.167,539.606,454.278,539.292,454.4,538.983Zm-1.857-40.756c.251-.01.5-.031.752-.06-.021.251-.036.5-.039.752l-.329.392a4.913,4.913,0,0,0-.564-.872Zm-18.489-15.039.039.113a5.114,5.114,0,0,0-.684.177l0-.162C433.625,483.272,433.839,483.227,434.056,483.188Zm-3.615,52.663c.363.154.731.295,1.1.426-.06.151-.121.3-.186.457a11.05,11.05,0,0,1-1.449.107Q430.195,536.359,430.441,535.85Zm-.757-50.635-.071.157a10.175,10.175,0,0,0-1.121.752A9.027,9.027,0,0,1,429.684,485.215Zm-.392,20.406a28.331,28.331,0,0,0-.729,5.456l-.391.277-.162.125C428.365,509.487,428.806,507.523,429.292,505.62Zm-.7,20.652c.277.489.564.979.854,1.471-.008.2-.016.405-.032.606a11.316,11.316,0,0,1-1.206-.24l-.251-.066-.1-.36C428.112,527.227,428.359,526.75,428.589,526.272Zm-1.659,8.245a6.411,6.411,0,0,0,.645-.149l.182.117a5.91,5.91,0,0,1-.9,1.381A8.849,8.849,0,0,0,426.93,534.517Zm-.745-45.719a1.6,1.6,0,0,0,.17,1.287c-.541.647-1.105,1.267-1.7,1.851l-.211.2A17.931,17.931,0,0,1,426.184,488.8Zm-3.466,14.109c.186-.357.378-.7.567-1.039l.146.441c-.209.64-.4,1.287-.585,1.933C422.819,503.8,422.777,503.349,422.718,502.906Zm5.574,39.042-.105.083c-1.168-.207-2.325-.473-3.518-.7-.4-.075-.8-.139-1.2-.2-.16-.167-.311-.337-.455-.514l-.015-.018a4.955,4.955,0,0,0,1.7-.768l.238.031c.285.112.569.219.856.321a9.782,9.782,0,0,0,2.563,1.708Zm26.1,4.874c-.259-.062-1.042,0-2.217,0s-3.131-.685-3.847-.561a2.494,2.494,0,0,1-1.948-.786,1.658,1.658,0,0,1-1.658-.068l-.144-.126-.083.018c-.2.031-.4.079-.6.13l-2.011.914a.641.641,0,0,1-.86-.212.613.613,0,0,1-.055-.515l-.262.087a.545.545,0,0,1-.606-.143l-.024,0,0,0-.16.028a.627.627,0,0,1-.635-.535.649.649,0,0,1,.434-.71,8.9,8.9,0,0,0,2.273-1.5,3.97,3.97,0,0,1,1.369-1.752c-.13-.42-.25-.843-.369-1.264l-.01,0a.634.634,0,0,1-.7-.439c-.7-2.2-1.022-4.069-1.554-5.982a15.2,15.2,0,0,1-.494,3.592c-.073.781-.146,1.562-.235,2.341q-.384,3.315-1.068,6.582a.58.58,0,0,1-.288.374.6.6,0,0,1-.442.663,15.278,15.278,0,0,1-6.464-.154c-.672.049-1.342.121-2.008.214-.51.073-.723-.569-.551-.946a3.492,3.492,0,0,1,.426-.689l.209-.245a11.772,11.772,0,0,1,3.333-1.979,5.252,5.252,0,0,0,1.65-1.269l-.091-.322a40.754,40.754,0,0,1,.34-7.318c.065-.755.144-1.507.228-2.259a.641.641,0,0,1-.131-.369c-.225-4.4-1.249-9.12-.293-13.422q.28-1.249.556-2.5c.036-.224.07-.449.1-.672a3.989,3.989,0,0,1-2.04-.086.642.642,0,0,1-.462-.612l.04-.31-.042-.232v-.086a.615.615,0,0,1-.335-.531,32.013,32.013,0,0,1,.062-4.479c-.011-.706.638-.065.719-.766l-2.346,1.39a8.623,8.623,0,0,0,0-1.544c.06-.544.133-1.087.216-1.628.01-1.682.566-2.7.943-4.864a37.571,37.571,0,0,1,2.178-4.9l.185-.439.169-.214.081-.151.112-.441a1.872,1.872,0,0,1,.374-.928.539.539,0,0,1,.288-.389,2.252,2.252,0,0,1,.593-.2,3.755,3.755,0,0,1,.822-.271l.434.076.115-.293c-.065-.337-.118-.677-.162-1.018l-.047.008-.123,0a3.621,3.621,0,0,1-1.058.016.764.764,0,0,1-.454-.209,1.68,1.68,0,0,1-1.1-1.261,6.251,6.251,0,0,1-.2-.891,4.964,4.964,0,0,1-.5-3.362,7.593,7.593,0,0,1,.185-1.165,6.384,6.384,0,0,1,.159-1.309,3.654,3.654,0,0,1,.282-1.324l0,0v0l.063-.152a.619.619,0,0,1,.784-.259l.107.071.308-.2c.209-.042.417-.1.622-.157l.053-.2a.628.628,0,0,1,.689-.455.573.573,0,0,1,.386.219l.087-.032.237-.112a.6.6,0,0,1,.651.044,3.116,3.116,0,0,1,1.168.335,3.173,3.173,0,0,1,.778.583,2.248,2.248,0,0,1,.907.2,3.176,3.176,0,0,1,1.531,2.909,8.833,8.833,0,0,1-.437,3.178,4.3,4.3,0,0,1-.185,1.061l-.024.063a1.627,1.627,0,0,1-.578,1.4,8.362,8.362,0,0,0,1.12,1.677,1.246,1.246,0,0,1,.564.156,3.379,3.379,0,0,1,.577.41,1.73,1.73,0,0,1,.183-.07c-.008-.271,0-.481,0-.481s-.191-.762-.342-1.175c-.272.034-.543.071-.813.12q.258-.853.475-1.716c-.019-.22-.037-.454-.057-.692a11.294,11.294,0,0,1,.243-2.909,3.106,3.106,0,0,1,1.353-2.418,5.3,5.3,0,0,1,3.66-.585,2.9,2.9,0,0,1,1.606.747,3.844,3.844,0,0,1,1.121,2.139,4.624,4.624,0,0,1,0,1.656,3.553,3.553,0,0,1,.081.506l.807.967-.126.446-.528.16.107.465-.128.262.021.382-.335.224c0,.139.081.745-.151.888a4.636,4.636,0,0,1-1.628,0,1,1,0,0,0-1.159.544c-.125.238.042.719.238,1.139.293.319.58.575.676.685a9.659,9.659,0,0,1,.849,1.619c.324.622,3.26,3.362,3.325,4.172s-1.173,1.5-1.173,1.5a12.887,12.887,0,0,1-.131,1.805c-.131.745.392,2.053.392,4.044a18.665,18.665,0,0,1-.914,4.732s.457,2.118.718,3.46-.587,8.494-.783,9.554a14.055,14.055,0,0,0-.194,3.111c.065.561-1.045,2.179-1.045,2.179a39.872,39.872,0,0,0-.783,4.109c-.194,1.744-.13,7.658-.13,7.658s.4.358.847.736c.123-1.076.327-2.162.363-2.763l.016-.316.175-.057a15.02,15.02,0,0,0-.379,2.418,1.565,1.565,0,0,0,.128.687l-.261.066a10.413,10.413,0,0,0,.937.723c.587.373,1.63.81,1.954,1s.851-.125.851-.125-.131.5.259.561a.692.692,0,0,1,.588.5c.065.188.065.311.587.5S454.65,546.884,454.389,546.822ZM455.3,488.9l-.28.243-.019-.013c-.146-.1-.3-.194-.457-.29a12.719,12.719,0,0,0,.049-1.536,5.675,5.675,0,0,0,.937-.384,8.828,8.828,0,0,1,2.239,1.486,5.789,5.789,0,0,1,.233,1.22,4.348,4.348,0,0,1-.191,1.732,4.364,4.364,0,0,0-.412-1.852A1.462,1.462,0,0,0,455.3,488.9Zm1.133,45.826c.251-.5.5-1,.752-1.494l.331-.212c.546-.264,1.082-.565,1.614-.891-.112.713-.216,1.428-.3,2.145l-.018.021c-.684.22-1.372.418-2.055.617l-.489.152Zm6.961,8.3a39.385,39.385,0,0,1-6.668,3.1,71.5,71.5,0,0,0,6.175-4.519,25.9,25.9,0,0,0,2.575-.486,11.433,11.433,0,0,0,1.852-.643C466.044,541.4,464.724,542.249,463.4,543.029Zm3.49-36.78-.1.211-.037.1q-.2-.326-.415-.647c.175-.3.355-.591.535-.886.193-.311.394-.616.6-.911A9.422,9.422,0,0,0,466.888,506.249Zm2.709-9.243c.219.214.436.426.651.642.029.238.06.473.1.707C470.115,497.9,469.867,497.444,469.6,497.006Zm9.619,5.53q.139.583.251,1.173a4.879,4.879,0,0,0-.3-.454,1.132,1.132,0,0,0-.64-.426A1.408,1.408,0,0,0,479.216,502.537Zm-1.462,5.974c0,.339-.008.682-.023,1.022-.117-.634-.238-1.249-.357-1.836C477.492,507.972,477.618,508.244,477.755,508.511ZM472.03,527.34c-.446.624-.869,1.264-1.288,1.909.486-1.619,1.071-3.205,1.632-4.738.122-.334.258-.672.4-1.016a6.214,6.214,0,0,0,.42,1.3q.068.294.16.569C472.906,526.031,472.474,526.715,472.03,527.34Zm8.152-8.258a32.7,32.7,0,0,1-2.546,9.787,26.4,26.4,0,0,1-4.079,6.075q.245-.335.486-.681a28.827,28.827,0,0,0,4.772-10.664,13.8,13.8,0,0,0,.275-2.918c.047-.209.094-.415.141-.614a47.178,47.178,0,0,0,.993-5.864A19.27,19.27,0,0,1,480.182,519.083Z" transform="translate(-406.153 -476.356)" fill="#00558c"/></svg>