<svg xmlns="http://www.w3.org/2000/svg" width="31.108" height="31.109" viewBox="0 0 31.108 31.109"><path d="M1093.329,130.409a1.824,1.824,0,1,0,1.825,1.824A1.824,1.824,0,0,0,1093.329,130.409Z" transform="translate(-1069.54 -124.855)" fill="#fff"/><path d="M1083.307,133.069a7.661,7.661,0,1,0,7.661,7.662A7.67,7.67,0,0,0,1083.307,133.069Zm0,12.569a4.907,4.907,0,1,1,4.907-4.907A4.913,4.913,0,0,1,1083.307,145.638Z" transform="translate(-1067.625 -125.176)" fill="#fff"/><path d="M1088.286,155.2h-12.42a9.355,9.355,0,0,1-9.344-9.344V133.436a9.354,9.354,0,0,1,9.344-9.344h12.42a9.355,9.355,0,0,1,9.345,9.344v12.421A9.356,9.356,0,0,1,1088.286,155.2Zm-12.42-28.182a6.424,6.424,0,0,0-6.417,6.417v12.421a6.424,6.424,0,0,0,6.417,6.417h12.42a6.425,6.425,0,0,0,6.418-6.417V133.436a6.425,6.425,0,0,0-6.418-6.417Z" transform="translate(-1066.523 -124.092)" fill="#fff"/></svg>