<svg xmlns="http://www.w3.org/2000/svg" width="28.943" height="28.876" viewBox="0 0 28.943 28.876"><path d="M1224.053,133.678h6.005v19.29h-6.005Zm3-9.586a3.476,3.476,0,1,1-3.481,3.474,3.476,3.476,0,0,1,3.481-3.474" transform="translate(-1223.576 -124.092)" fill="#fff"/><path d="M1235.228,134.929h5.752v2.639h.078a6.305,6.305,0,0,1,5.678-3.117c6.071,0,7.19,3.993,7.19,9.188V154.22h-5.992v-9.379c0-2.239-.044-5.115-3.116-5.115-3.121,0-3.6,2.436-3.6,4.952v9.542h-5.993Z" transform="translate(-1224.983 -125.343)" fill="#fff"/></svg>