<svg xmlns="http://www.w3.org/2000/svg" width="55.681" height="56.363" viewBox="0 0 55.681 56.363"><g transform="translate(-0.5 -0.439)"><path d="M38.461,37.325a3.571,3.571,0,0,0-3.568-3.568H11.7V31.974h.892a.891.891,0,0,0,.892-.892V27.514a.892.892,0,0,0-.892-.892H11.7v-10.7h.892a.892.892,0,0,0,.892-.892v-.892h1.784v.892a.892.892,0,0,0,.892.892h10.7a.892.892,0,0,0,.892-.892V7.892A.892.892,0,0,0,26.866,7h-10.7a.892.892,0,0,0-.892.892v.892H7.243A2.679,2.679,0,0,0,4.568,11.46V26.622H3.676a.892.892,0,0,0-.892.892v3.568a.891.891,0,0,0,.892.892h.892v1.784A3.553,3.553,0,0,0,2.233,40a3.521,3.521,0,0,0,0,5.352,3.521,3.521,0,0,0,0,5.352,3.553,3.553,0,0,0,2.335,6.243H34.893A3.553,3.553,0,0,0,37.228,50.7a3.521,3.521,0,0,0,0-5.352,3.521,3.521,0,0,0,0-5.352A3.544,3.544,0,0,0,38.461,37.325ZM17.055,8.784h1.784v1.784h1.784V8.784h5.352v5.352H24.19V12.352H22.406v1.784H17.055Zm-1.784,3.568H13.487V10.568h1.784ZM6.352,11.46a.893.893,0,0,1,.892-.892H11.7v3.568h-.892a.892.892,0,0,0-.892.892V26.622H6.352ZM4.568,28.406H11.7V30.19H4.568Zm1.784,3.568H9.919v1.784H6.352ZM36.677,53.38a1.786,1.786,0,0,1-1.784,1.784H4.568a1.784,1.784,0,0,1,0-3.568H34.893A1.786,1.786,0,0,1,36.677,53.38Zm0-5.352a1.786,1.786,0,0,1-1.784,1.784H4.568a1.784,1.784,0,0,1,0-3.568H34.893A1.786,1.786,0,0,1,36.677,48.028Zm0-5.352a1.786,1.786,0,0,1-1.784,1.784H4.568a1.784,1.784,0,1,1,0-3.568H34.893A1.786,1.786,0,0,1,36.677,42.677ZM4.568,39.109a1.784,1.784,0,0,1,0-3.568H34.893a1.784,1.784,0,1,1,0,3.568Z" transform="translate(0 -0.645)" fill="#00558c" stroke="#00558c" stroke-width="1"/><rect width="26.414" height="1.784" transform="translate(29.361 6.368) rotate(-11.659)" fill="#00558c" stroke="#00558c" stroke-width="1"/><rect width="1.784" height="26.414" transform="translate(29.361 15.254) rotate(-78.311)" fill="#00558c" stroke="#00558c" stroke-width="1"/><path d="M28.626,19.376l-3.535,4.947A5.825,5.825,0,0,0,24,27.73a5.458,5.458,0,0,0,4.282,5.439,5.566,5.566,0,0,0,1.061.1,5.35,5.35,0,0,0,5.36-5.351V27.73a5.825,5.825,0,0,0-1.092-3.406l-3.535-4.947A.923.923,0,0,0,28.626,19.376Zm4.293,8.354v.192a3.573,3.573,0,0,1-4.3,3.5,3.673,3.673,0,0,1-2.84-3.688,4.055,4.055,0,0,1,.759-2.37l2.809-3.932L32.16,25.36A4.055,4.055,0,0,1,32.919,27.73Z" transform="translate(-2.486 -1.945)" fill="#00558c" stroke="#00558c" stroke-width="1"/><path d="M41.352,22.676a2.676,2.676,0,1,0-2.676,2.676A2.679,2.679,0,0,0,41.352,22.676Zm-3.568,0a.892.892,0,1,1,.892.892A.893.893,0,0,1,37.784,22.676Z" transform="translate(-3.783 -2.05)" fill="#00558c" stroke="#00558c" stroke-width="1"/><path d="M41.568,28a3.568,3.568,0,1,0,3.568,3.568A3.571,3.571,0,0,0,41.568,28Zm0,5.352a1.784,1.784,0,1,1,1.784-1.784A1.786,1.786,0,0,1,41.568,33.352Z" transform="translate(-3.999 -2.915)" fill="#00558c" stroke="#00558c" stroke-width="1"/><path d="M55.352,30.676a2.676,2.676,0,1,0-2.676,2.676A2.679,2.679,0,0,0,55.352,30.676Zm-3.568,0a.892.892,0,1,1,.892.892A.893.893,0,0,1,51.784,30.676Z" transform="translate(-5.296 -2.915)" fill="#00558c" stroke="#00558c" stroke-width="1"/><path d="M55.568,36a3.568,3.568,0,1,0,3.568,3.568A3.571,3.571,0,0,0,55.568,36Zm0,5.352a1.784,1.784,0,1,1,1.784-1.784A1.786,1.786,0,0,1,55.568,41.352Z" transform="translate(-5.512 -3.78)" fill="#00558c" stroke="#00558c" stroke-width="1"/><rect width="3.568" height="1.784" transform="translate(29.541 9.922)" fill="#00558c" stroke="#00558c" stroke-width="1"/><rect width="8.919" height="1.784" transform="translate(34.893 9.922)" fill="#00558c" stroke="#00558c" stroke-width="1"/><rect width="1.784" height="1.784" transform="translate(43.812 6.355)" fill="#00558c" stroke="#00558c" stroke-width="1"/><rect width="1.784" height="1.784" transform="translate(47.38 6.355)" fill="#00558c" stroke="#00558c" stroke-width="1"/><rect width="1.784" height="1.784" transform="translate(50.947 6.355)" fill="#00558c" stroke="#00558c" stroke-width="1"/><rect width="1.784" height="1.784" transform="translate(45.596 9.922)" fill="#00558c" stroke="#00558c" stroke-width="1"/><rect width="1.784" height="1.784" transform="translate(49.164 9.922)" fill="#00558c" stroke="#00558c" stroke-width="1"/><rect width="1.784" height="1.784" transform="translate(52.731 9.922)" fill="#00558c" stroke="#00558c" stroke-width="1"/><rect width="1.784" height="1.784" transform="translate(43.812 13.49)" fill="#00558c" stroke="#00558c" stroke-width="1"/><rect width="1.784" height="1.784" transform="translate(47.38 13.49)" fill="#00558c" stroke="#00558c" stroke-width="1"/><rect width="1.784" height="1.784" transform="translate(50.947 13.49)" fill="#00558c" stroke="#00558c" stroke-width="1"/></g></svg>