<svg xmlns="http://www.w3.org/2000/svg" width="46.129" height="61.032" viewBox="0 0 46.129 61.032"><g transform="translate(-6.145 -52.045)"><path d="M51.6,388.034a7.434,7.434,0,0,0-3.821-3.466,11.506,11.506,0,0,0-5.1-.928,7.308,7.308,0,0,0-7-5.268,7.163,7.163,0,0,0-1.725.209,9.37,9.37,0,0,0-5.423-2.112,18.139,18.139,0,0,1,.054-6.134,12.555,12.555,0,0,0,2.468.99l.17.054a15.825,15.825,0,0,0,4.773.781,11.941,11.941,0,0,0,3.319-.449,12.926,12.926,0,0,0,7.875-7.1c.789-1.671,2.46-5.856.812-8.641l-.039-.054c-1.795-2.7-6.289-3.009-8.138-3.017a13.068,13.068,0,0,0-9.809,4.023,11.9,11.9,0,0,0-2.313,3.876,12.108,12.108,0,0,0-2.375-3.837,13.048,13.048,0,0,0-9.871-3.86c-1.849.039-6.336.418-8.092,3.133l-.031.054c-1.594,2.816.139,6.97.959,8.625a12.945,12.945,0,0,0,8,6.978,11.963,11.963,0,0,0,3.1.4,15.653,15.653,0,0,0,4.974-.859l.17-.054c.5-.17,1.075-.364,1.648-.611a20.212,20.212,0,0,0,.015,5.755c-3.3.387-5.856,2.135-6.49,4.417a14.676,14.676,0,0,0-6.08,1.361A11.367,11.367,0,0,0,8.6,388.034a1.16,1.16,0,0,0,.565,1.539,1.09,1.09,0,0,0,.487.108,1.157,1.157,0,0,0,1.052-.673c2.22-4.765,5.005-5.663,10.049-5.786H20.8a.169.169,0,0,0,.062-.008c.015,0,.039-.008.054-.008s.039-.008.062-.008.039-.008.054-.015.039-.008.054-.015a.144.144,0,0,1,.054-.015c.015-.008.039-.016.054-.023a.377.377,0,0,1,.054-.023l.046-.023c.015-.008.031-.023.046-.031a.162.162,0,0,0,.046-.031c.015-.008.031-.023.046-.031s.031-.023.046-.031.031-.023.039-.039.031-.023.039-.039l.039-.039c.015-.015.023-.031.039-.046s.023-.031.031-.046.023-.031.031-.046a.162.162,0,0,1,.031-.046c.008-.015.023-.031.031-.046l.023-.046a.376.376,0,0,0,.023-.054c.008-.015.015-.039.023-.054a.144.144,0,0,0,.015-.054c.008-.015.008-.039.015-.054s.008-.039.015-.054.008-.039.008-.062.008-.039.008-.054v-.108a2.876,2.876,0,0,1,1.485-2.181,5.935,5.935,0,0,1,1.013-.518c0,.031-.008.062-.008.093a.905.905,0,1,0,1.625-.549,9.245,9.245,0,0,1,1.617-.139,7.217,7.217,0,0,1,5.3,1.973h0c.008,0,.008.008.015.008s.015.016.023.016c.023.015.039.031.062.046s.031.023.046.031.031.023.046.031.039.023.054.031a.17.17,0,0,1,.039.023l.062.023a.11.11,0,0,0,.046.015.182.182,0,0,0,.062.015c.015.008.031.008.046.016s.039.008.054.015a.151.151,0,0,0,.062.008c.015,0,.031.008.046.008s.046.008.07.008h.162a.215.215,0,0,0,.07-.008c.015,0,.039-.008.054-.008s.039-.008.054-.008l.07-.023c.008,0,.023-.008.031-.008a4.969,4.969,0,0,1,6.274,2.963,1.157,1.157,0,0,0,.619,2.22,9.965,9.965,0,0,1,5.887.541,5.231,5.231,0,0,1,2.653,2.3,1.172,1.172,0,0,0,1.539.58A1.2,1.2,0,0,0,51.6,388.034ZM29.115,364.688a11.739,11.739,0,0,1,2.622-6.2l.008-.008a10.709,10.709,0,0,1,8.022-3.257h.054c2.251.008,5.222.526,6.2,1.942.851,1.5.039,4.4-.928,6.436a10.806,10.806,0,0,1-6.421,5.871h0a11.67,11.67,0,0,1-6.738-.309l-.178-.054a13.008,13.008,0,0,1-1.741-.642,15.9,15.9,0,0,1,1.764-1.98,18.381,18.381,0,0,1,7.125-4.3,1.16,1.16,0,0,0-.719-2.2,20.757,20.757,0,0,0-8.03,4.85c-.464.456-.851.866-1.207,1.261.031-.433.093-.859.147-1.215ZM23.8,369.167l-.17.062a11.732,11.732,0,0,1-6.73.425h0a10.789,10.789,0,0,1-6.521-5.763c-1-2.019-1.864-4.9-1.037-6.421.959-1.439,3.922-2,6.173-2.042a10.742,10.742,0,0,1,8.13,3.125l.008.008a11.654,11.654,0,0,1,2.723,6.158l.031.178c.031.186.062.395.093.611a.729.729,0,0,0-.077-.077l-.116-.124c-2.808-3.048-6.7-3.9-8.8-4.363-.147-.031-.278-.062-.4-.093a1.158,1.158,0,0,0-.511,2.259q.2.046.418.093c1.973.433,5.268,1.16,7.589,3.667l.116.132a10.272,10.272,0,0,1,1.114,1.331A11.288,11.288,0,0,1,23.8,369.167Z" transform="translate(0 -277.113)" fill="#00558c" stroke="#00558c" stroke-width="1"/><circle cx="0.905" cy="0.905" r="0.905" transform="translate(30.09 105.932)" fill="#00558c" stroke="#00558c" stroke-width="1"/><circle cx="0.905" cy="0.905" r="0.905" transform="translate(27.692 110.055)" fill="#00558c" stroke="#00558c" stroke-width="1"/><circle cx="0.905" cy="0.905" r="0.905" transform="translate(22.346 107.131)" fill="#00558c" stroke="#00558c" stroke-width="1"/><circle cx="0.905" cy="0.905" r="0.905" transform="translate(15.694 109.158)" fill="#00558c" stroke="#00558c" stroke-width="1"/><circle cx="0.905" cy="0.905" r="0.905" transform="translate(35.892 109.158)" fill="#00558c" stroke="#00558c" stroke-width="1"/><circle cx="0.905" cy="0.905" r="0.905" transform="translate(43.929 110.179)" fill="#00558c" stroke="#00558c" stroke-width="1"/><path d="M247.053,145.033l-.023,12.679a1.159,1.159,0,0,0,1.16,1.16h0a1.159,1.159,0,0,0,1.16-1.16l.023-12.679a2.414,2.414,0,1,0-2.321,0Z" transform="translate(-220.614 -81.145)" fill="#00558c" stroke="#00558c" stroke-width="1"/><path d="M125.554,60.75a2.385,2.385,0,0,0,1.748.572,22.927,22.927,0,0,1,3.961,12.911l-.008,4.363a1.159,1.159,0,0,0,1.16,1.16h0a1.159,1.159,0,0,0,1.16-1.16l.008-4.371a25.357,25.357,0,0,0-4.332-14.172,2.413,2.413,0,1,0-3.7.7Z" transform="translate(-108.893 -3.638)" fill="#00558c" stroke="#00558c" stroke-width="1"/><path d="M67.014,147.326a2.419,2.419,0,0,0,2.089-1.207,2.864,2.864,0,0,1,1.64,1.083,4.848,4.848,0,0,1,.982,2.978l.008,4.518-.008,1.655a1.159,1.159,0,0,0,1.16,1.16h0a1.159,1.159,0,0,0,1.16-1.16l.008-1.655-.008-4.518a7.107,7.107,0,0,0-1.485-4.417,5.117,5.117,0,0,0-3.411-1.98,2.39,2.39,0,0,0-2.135-1.284,2.414,2.414,0,0,0,0,4.827Z" transform="translate(-53.432 -82.989)" fill="#00558c" stroke="#00558c" stroke-width="1"/><path d="M314.852,76.149h0A1.169,1.169,0,0,0,316.02,75l.008-3.187.07-10.451A5.082,5.082,0,0,1,317.66,57.8l.5-.48a2.416,2.416,0,1,0-1.532-3.566,2.386,2.386,0,0,0-.193,2l-.387.379a7.369,7.369,0,0,0-2.267,5.183l-.07,10.474-.008,3.195A1.152,1.152,0,0,0,314.852,76.149Z" transform="translate(-283.261)" fill="#00558c" stroke="#00558c" stroke-width="1"/><path d="M367.484,138.406c-.812,1.5-1.137,3.69-1.176,7.805,0,.07,0,.8-.008,1.276v.425a1.169,1.169,0,0,0,1.153,1.168h.008a1.157,1.157,0,0,0,1.16-1.153V147.5c0-.48,0-1.2.008-1.269.031-3.6.294-5.608.9-6.722a4.388,4.388,0,0,1,2.259-1.81,2.415,2.415,0,1,0-1.029-2.081A6.656,6.656,0,0,0,367.484,138.406Z" transform="translate(-331.793 -74.502)" fill="#00558c" stroke="#00558c" stroke-width="1"/><path d="M421.764,215.177a3.773,3.773,0,0,0-3.35,3.4l-.015,2.151a1.159,1.159,0,0,0,1.153,1.168h.008a1.162,1.162,0,0,0,1.16-1.153l.015-2.151c0-.425.526-.9,1.276-1.091a2.414,2.414,0,1,0-.248-2.321Z" transform="translate(-379.862 -148.681)" fill="#00558c" stroke="#00558c" stroke-width="1"/><path d="M51.386,221.638a3.058,3.058,0,0,1,1.261,2.251,1.164,1.164,0,0,0,1.153,1.168h.008a1.162,1.162,0,0,0,1.16-1.153,5.391,5.391,0,0,0-2.212-4.146,2.416,2.416,0,1,0-1.369,1.88Z" transform="translate(-38.067 -151.77)" fill="#00558c" stroke="#00558c" stroke-width="1"/></g></svg>