<svg xmlns="http://www.w3.org/2000/svg" width="49.037" height="63.12" viewBox="0 0 49.037 63.12"><g transform="translate(-5 -34.528)"><path d="M37.318,128.937a1.975,1.975,0,1,0-3.95,0v8.99h3.95Z" transform="translate(-12.361 -40.278)" fill="#00558c"/><path d="M17.78,50.207c.028.007.055,0,.083.01a2.238,2.238,0,0,0,1.389,1.239l.173.651a5.815,5.815,0,0,0,2.886,3.625l.915.485a5.843,5.843,0,0,0,5.486,0l.915-.485a5.813,5.813,0,0,0,2.886-3.624l.173-.651a2.225,2.225,0,0,0,1.389-1.239c.028-.005.056,0,.084-.01,3.468-.809,5.922-1.549,5.922-3.727,0-2.008-2.087-2.794-5.127-3.538V40.775a13.58,13.58,0,0,0-.223-2.447l-.018-.1a4.533,4.533,0,0,0-5.594-3.555L26.7,35.3a2.936,2.936,0,0,1-1.464,0l-2.427-.625a4.532,4.532,0,0,0-5.591,3.537,13.618,13.618,0,0,0-.234,2.505v2.228c-3.041.744-5.128,1.53-5.128,3.538C11.857,48.658,14.312,49.4,17.78,50.207Zm3.155-9.493a9.649,9.649,0,0,1,.165-1.775.547.547,0,0,1,.252-.368.586.586,0,0,1,.472-.074l2.427.625a6.879,6.879,0,0,0,3.436,0L30.1,38.5a.588.588,0,0,1,.472.074.542.542,0,0,1,.251.365l.018.1A9.589,9.589,0,0,1,31,40.775v1.453a46.257,46.257,0,0,0-10.069,0V40.714Zm.026,6.263a1.4,1.4,0,0,0,.244-.805,40.649,40.649,0,0,1,4.517-.267l1.306,1.441,1.059-1.391q.388.019.767.045l.515.788.361-.719c.342.031.678.065,1,.1a1.383,1.383,0,0,0,.99,1.347l-.2,1.218a1.374,1.374,0,0,0-1.345,1.127c-.034.153-.211.822-.4,1.517A2.986,2.986,0,0,1,28.3,53.239l-.915.485a3.03,3.03,0,0,1-2.842,0l-.915-.485a2.98,2.98,0,0,1-1.482-1.858c-.186-.7-.364-1.371-.392-1.492a1.411,1.411,0,0,0-1.353-1.152l-.194-1.218A1.41,1.41,0,0,0,20.961,46.977Z" transform="translate(-2.988)" fill="#00558c"/><path d="M23.614,70.463v5.978A2.067,2.067,0,0,0,25.683,78.5H36.232A2.067,2.067,0,0,0,38.3,76.441V70.85a7.786,7.786,0,0,1-2.257,2.066v3.33H25.871V72.754A7.833,7.833,0,0,1,23.614,70.463Z" transform="translate(-8.111 -15.659)" fill="#00558c" stroke="#00558c" stroke-width="1"/><path d="M14.35,94.972a1.272,1.272,0,0,0,0-.511v-27.4a10.171,10.171,0,0,0-2.316.456,1.962,1.962,0,0,0-.45.144A10,10,0,0,0,5,77.014v17.7A1.966,1.966,0,0,0,5.564,96.1v2.078a4.11,4.11,0,0,0,4.862,4.012v9.639H14.35V94.972Zm-3.924,4.239a1.325,1.325,0,0,1-.739.223,1.283,1.283,0,0,1-1.3-1.26V96.692h2.04v2.519Zm0-6.469H8.95V77.014a5.924,5.924,0,0,1,1.476-3.907Z" transform="translate(0 -14.178)" fill="#00558c"/><path d="M55.589,78.826a7.449,7.449,0,0,0,4.768,1.737h4.366a1.967,1.967,0,0,0,.826-.186v19.661H69.5V79.793a4.066,4.066,0,0,0,0-7.751V56.4a4.843,4.843,0,0,0,4.862-4.81l-.522-10.742a.882.882,0,0,0-.881-.839h-.012a.882.882,0,0,0-.881.839l-.523,10.742A2.018,2.018,0,0,1,69.5,53.582h-.562l-.529-12.724a.882.882,0,0,0-1.763,0l-.529,12.724h-.563a2.018,2.018,0,0,1-2.043-1.988l-.524-10.742a.882.882,0,0,0-.881-.839h-.012a.882.882,0,0,0-.881.839l-.523,10.742a4.843,4.843,0,0,0,4.862,4.81V71.458a1.956,1.956,0,0,0-.826-.186H62.168l-1.861-8.508c-.007-.03-.014-.059-.021-.088a10.015,10.015,0,0,0-5.813-6.625,1.936,1.936,0,0,0-.261-.1,10.188,10.188,0,0,0-2.572-.639v44.729h3.95ZM66.7,74.657h1.514a1.261,1.261,0,1,1,0,2.52H66.7ZM55.589,61.834a5.928,5.928,0,0,1,.87,1.82l2.19,10.014a1.975,1.975,0,0,0,1.929,1.553h2.17v1.393H60.357a3.453,3.453,0,0,1-3.306-2.4l-1.462-6.532V61.834Z" transform="translate(-20.323 -2.39)" fill="#00558c"/></g></svg>