<svg xmlns="http://www.w3.org/2000/svg" width="37.796" height="31.108" viewBox="0 0 37.796 31.108"><path d="M1181.648,129.626a15.612,15.612,0,0,1-3.822,1.089c.614-.1,1.517-1.216,1.879-1.666a7.028,7.028,0,0,0,1.269-2.313c.033-.066.058-.149-.008-.2a.216.216,0,0,0-.2.017,19.508,19.508,0,0,1-4.532,1.734.3.3,0,0,1-.312-.083,3.78,3.78,0,0,0-.4-.405,8.032,8.032,0,0,0-2.2-1.345,7.645,7.645,0,0,0-3.367-.542,8.05,8.05,0,0,0-3.194.9,8.234,8.234,0,0,0-2.577,2.1,7.92,7.92,0,0,0-1.539,3.083,8.36,8.36,0,0,0-.082,3.253c.025.183.008.207-.156.183-6.225-.927-11.384-3.154-15.573-7.926-.181-.207-.28-.207-.429.016-1.833,2.747-.943,7.16,1.346,9.329.305.289.619.579.957.842a7.932,7.932,0,0,1-3-.842c-.182-.115-.273-.049-.29.157a4.721,4.721,0,0,0,.05.892,7.984,7.984,0,0,0,4.921,6.366,4.687,4.687,0,0,0,1,.306,8.9,8.9,0,0,1-2.947.091c-.214-.041-.3.067-.214.273,1.3,3.534,4.1,4.586,6.192,5.185.28.049.562.049.843.115-.018.025-.034.025-.05.05-.695,1.06-3.105,1.849-4.229,2.241a15.133,15.133,0,0,1-6.422.822c-.345-.051-.418-.047-.512,0s-.012.142.1.23c.438.289.884.546,1.337.793a21.2,21.2,0,0,0,4.293,1.717c7.715,2.131,16.405.565,22.2-5.19,4.549-4.52,6.143-10.754,6.143-16.995,0-.244.288-.38.46-.508a15.022,15.022,0,0,0,3.022-3.142.955.955,0,0,0,.2-.6v-.033C1181.8,129.526,1181.8,129.555,1181.648,129.626Z" transform="translate(-1144.007 -125.896)" fill="#fff"/></svg>