<svg xmlns="http://www.w3.org/2000/svg" width="34.187" height="26.665" viewBox="0 0 34.187 26.665"><path d="M2725.2,42.9a75.981,75.981,0,0,1-9.759-.421c-2.441-.334-4.011-.893-5.089-1.813-2.147-1.833-2.247-5.066-2.247-11.1s.1-9.265,2.247-11.1c1.078-.92,2.647-1.48,5.089-1.813a113.193,113.193,0,0,1,19.517,0c2.441.334,4.01.893,5.088,1.813,2.146,1.833,2.247,5.066,2.247,11.1s-.1,9.264-2.247,11.1c-1.078.92-2.647,1.479-5.088,1.813A75.951,75.951,0,0,1,2725.2,42.9Zm-2.669-17.6c-.456,0-.75.35-.75.892v6.749c0,.543.294.893.75.893a1.116,1.116,0,0,0,.471-.114l7.675-3.581c.325-.153.5-.356.5-.572s-.178-.419-.5-.571L2723,25.418A1.12,1.12,0,0,0,2722.529,25.3Z" transform="translate(-2708.104 -16.238)" fill="#fff"/></svg>